<?xml version="1.0" encoding="utf-8" standalone="no"?>
<!DOCTYPE svg PUBLIC "-//W3C//DTD SVG 1.1//EN"
  "http://www.w3.org/Graphics/SVG/1.1/DTD/svg11.dtd">
<svg height="666.72pt" version="1.1" viewBox="0 0 1130.4 666.72" width="1130.4pt" xmlns="http://www.w3.org/2000/svg" xmlns:xlink="http://www.w3.org/1999/xlink">
 <metadata>
  <rdf:RDF xmlns:cc="http://creativecommons.org/ns#" xmlns:dc="http://purl.org/dc/elements/1.1/" xmlns:rdf="http://www.w3.org/1999/02/22-rdf-syntax-ns#">
   <cc:Work>
    <dc:type rdf:resource="http://purl.org/dc/dcmitype/StillImage"/>
    <dc:date>2022-10-14T01:15:56.247341</dc:date>
    <dc:format>image/svg+xml</dc:format>
    <dc:creator>
     <cc:Agent>
      <dc:title>Matplotlib v3.4.2, https://matplotlib.org/</dc:title>
     </cc:Agent>
    </dc:creator>
   </cc:Work>
  </rdf:RDF>
 </metadata>
 <defs>
  <style type="text/css">*{stroke-linecap:butt;stroke-linejoin:round;}</style>
 </defs>
 <g id="figure_1">
  <g id="patch_1">
   <path d="M 0 666.72 
L 1130.4 666.72 
L 1130.4 0 
L 0 0 
z
" style="fill:none;"/>
  </g>
  <g id="axes_1">
   <g id="patch_2">
    <path d="M 7.2 659.52 
L 1123.2 659.52 
L 1123.2 7.2 
L 7.2 7.2 
z
" style="fill:none;"/>
   </g>
   <g id="LineCollection_1">
    <path clip-path="url(#pad9d63a9aa)" d="M 183.496267 164.026569 
L 264.231975 256.287475 
" style="fill:none;stroke:#000000;"/>
    <path clip-path="url(#pad9d63a9aa)" d="M 183.496267 164.026569 
L 263.686634 142.571552 
" style="fill:none;stroke:#000000;"/>
    <path clip-path="url(#pad9d63a9aa)" d="M 183.496267 164.026569 
L 120.145128 102.118236 
" style="fill:none;stroke:#000000;"/>
    <path clip-path="url(#pad9d63a9aa)" d="M 183.496267 164.026569 
L 169.33179 82.736944 
" style="fill:none;stroke:#000000;"/>
    <path clip-path="url(#pad9d63a9aa)" d="M 183.496267 164.026569 
L 123.346302 204.918738 
" style="fill:none;stroke:#000000;"/>
    <path clip-path="url(#pad9d63a9aa)" d="M 183.496267 164.026569 
L 104.042975 152.835393 
" style="fill:none;stroke:#000000;"/>
    <path clip-path="url(#pad9d63a9aa)" d="M 950.449484 528.582838 
L 886.471648 487.376697 
" style="fill:none;stroke:#000000;"/>
    <path clip-path="url(#pad9d63a9aa)" d="M 950.449484 528.582838 
L 1026.357025 511.912096 
" style="fill:none;stroke:#000000;"/>
    <path clip-path="url(#pad9d63a9aa)" d="M 950.449484 528.582838 
L 958.083952 602.913719 
" style="fill:none;stroke:#000000;"/>
    <path clip-path="url(#pad9d63a9aa)" d="M 950.449484 528.582838 
L 980.55597 462.772818 
" style="fill:none;stroke:#000000;"/>
    <path clip-path="url(#pad9d63a9aa)" d="M 950.449484 528.582838 
L 907.264401 579.650495 
" style="fill:none;stroke:#000000;"/>
    <path clip-path="url(#pad9d63a9aa)" d="M 950.449484 528.582838 
L 1014.970539 572.444134 
" style="fill:none;stroke:#000000;"/>
    <path clip-path="url(#pad9d63a9aa)" d="M 344.590796 146.67972 
L 339.070296 63.806281 
" style="fill:none;stroke:#000000;"/>
    <path clip-path="url(#pad9d63a9aa)" d="M 344.590796 146.67972 
L 415.228433 170.226728 
" style="fill:none;stroke:#000000;"/>
    <path clip-path="url(#pad9d63a9aa)" d="M 344.590796 146.67972 
L 388.387086 69.908021 
" style="fill:none;stroke:#000000;"/>
    <path clip-path="url(#pad9d63a9aa)" d="M 344.590796 146.67972 
L 263.686634 142.571552 
" style="fill:none;stroke:#000000;"/>
    <path clip-path="url(#pad9d63a9aa)" d="M 344.590796 146.67972 
L 264.231975 256.287475 
" style="fill:none;stroke:#000000;"/>
    <path clip-path="url(#pad9d63a9aa)" d="M 344.590796 146.67972 
L 418.005909 112.326102 
" style="fill:none;stroke:#000000;"/>
    <path clip-path="url(#pad9d63a9aa)" d="M 244.512216 411.473005 
L 226.017291 498.61631 
" style="fill:none;stroke:#000000;"/>
    <path clip-path="url(#pad9d63a9aa)" d="M 244.512216 411.473005 
L 264.231975 256.287475 
" style="fill:none;stroke:#000000;"/>
    <path clip-path="url(#pad9d63a9aa)" d="M 244.512216 411.473005 
L 184.640427 472.779625 
" style="fill:none;stroke:#000000;"/>
    <path clip-path="url(#pad9d63a9aa)" d="M 244.512216 411.473005 
L 172.462474 419.90707 
" style="fill:none;stroke:#000000;"/>
    <path clip-path="url(#pad9d63a9aa)" d="M 244.512216 411.473005 
L 306.342104 443.426669 
" style="fill:none;stroke:#000000;"/>
    <path clip-path="url(#pad9d63a9aa)" d="M 244.512216 411.473005 
L 274.141585 490.160356 
" style="fill:none;stroke:#000000;"/>
   </g>
   <g id="PathCollection_1"/>
   <g id="matplotlib.axis_1">
    <g id="xtick_1"/>
    <g id="xtick_2"/>
    <g id="xtick_3"/>
    <g id="xtick_4"/>
    <g id="xtick_5"/>
    <g id="xtick_6"/>
    <g id="xtick_7"/>
    <g id="xtick_8"/>
   </g>
   <g id="matplotlib.axis_2">
    <g id="ytick_1"/>
    <g id="ytick_2"/>
    <g id="ytick_3"/>
    <g id="ytick_4"/>
    <g id="ytick_5"/>
   </g>
   <g id="PathCollection_2">
    <defs>
     <path d="M 0 19.364917 
C 5.135636 19.364917 10.061621 17.324507 13.693064 13.693064 
C 17.324507 10.061621 19.364917 5.135636 19.364917 -0 
C 19.364917 -5.135636 17.324507 -10.061621 13.693064 -13.693064 
C 10.061621 -17.324507 5.135636 -19.364917 0 -19.364917 
C -5.135636 -19.364917 -10.061621 -17.324507 -13.693064 -13.693064 
C -17.324507 -10.061621 -19.364917 -5.135636 -19.364917 0 
C -19.364917 5.135636 -17.324507 10.061621 -13.693064 13.693064 
C -10.061621 17.324507 -5.135636 19.364917 0 19.364917 
z
" id="C0_0_75a1119df9"/>
    </defs>
    <g clip-path="url(#pad9d63a9aa)">
     <use style="fill:#1e90ff;stroke:#1e90ff;" x="183.496267" xlink:href="#C0_0_75a1119df9" y="164.026569"/>
    </g>
    <g clip-path="url(#pad9d63a9aa)">
     <use style="fill:#1e90ff;stroke:#1e90ff;" x="950.449484" xlink:href="#C0_0_75a1119df9" y="528.582838"/>
    </g>
    <g clip-path="url(#pad9d63a9aa)">
     <use style="fill:#1e90ff;stroke:#1e90ff;" x="344.590796" xlink:href="#C0_0_75a1119df9" y="146.67972"/>
    </g>
    <g clip-path="url(#pad9d63a9aa)">
     <use style="fill:#1e90ff;stroke:#1e90ff;" x="244.512216" xlink:href="#C0_0_75a1119df9" y="411.473005"/>
    </g>
    <g clip-path="url(#pad9d63a9aa)">
     <use style="fill:#ffba84;stroke:#ffba84;" x="264.231975" xlink:href="#C0_0_75a1119df9" y="256.287475"/>
    </g>
    <g clip-path="url(#pad9d63a9aa)">
     <use style="fill:#a8d8b9;stroke:#a8d8b9;" x="886.471648" xlink:href="#C0_0_75a1119df9" y="487.376697"/>
    </g>
    <g clip-path="url(#pad9d63a9aa)">
     <use style="fill:#a8d8b9;stroke:#a8d8b9;" x="339.070296" xlink:href="#C0_0_75a1119df9" y="63.806281"/>
    </g>
    <g clip-path="url(#pad9d63a9aa)">
     <use style="fill:#a8d8b9;stroke:#a8d8b9;" x="226.017291" xlink:href="#C0_0_75a1119df9" y="498.61631"/>
    </g>
    <g clip-path="url(#pad9d63a9aa)">
     <use style="fill:#d7c4bb;stroke:#d7c4bb;" x="263.686634" xlink:href="#C0_0_75a1119df9" y="142.571552"/>
    </g>
    <g clip-path="url(#pad9d63a9aa)">
     <use style="fill:#81c7d4;stroke:#81c7d4;" x="1026.357025" xlink:href="#C0_0_75a1119df9" y="511.912096"/>
    </g>
    <g clip-path="url(#pad9d63a9aa)">
     <use style="fill:#81c7d4;stroke:#81c7d4;" x="415.228433" xlink:href="#C0_0_75a1119df9" y="170.226728"/>
    </g>
    <g clip-path="url(#pad9d63a9aa)">
     <use style="fill:#fedfe1;stroke:#fedfe1;" x="120.145128" xlink:href="#C0_0_75a1119df9" y="102.118236"/>
    </g>
    <g clip-path="url(#pad9d63a9aa)">
     <use style="fill:#fedfe1;stroke:#fedfe1;" x="958.083952" xlink:href="#C0_0_75a1119df9" y="602.913719"/>
    </g>
    <g clip-path="url(#pad9d63a9aa)">
     <use style="fill:#fedfe1;stroke:#fedfe1;" x="388.387086" xlink:href="#C0_0_75a1119df9" y="69.908021"/>
    </g>
    <g clip-path="url(#pad9d63a9aa)">
     <use style="fill:#fedfe1;stroke:#fedfe1;" x="184.640427" xlink:href="#C0_0_75a1119df9" y="472.779625"/>
    </g>
    <g clip-path="url(#pad9d63a9aa)">
     <use style="fill:#d7c4bb;stroke:#d7c4bb;" x="169.33179" xlink:href="#C0_0_75a1119df9" y="82.736944"/>
    </g>
    <g clip-path="url(#pad9d63a9aa)">
     <use style="fill:#d7c4bb;stroke:#d7c4bb;" x="980.55597" xlink:href="#C0_0_75a1119df9" y="462.772818"/>
    </g>
    <g clip-path="url(#pad9d63a9aa)">
     <use style="fill:#d7c4bb;stroke:#d7c4bb;" x="172.462474" xlink:href="#C0_0_75a1119df9" y="419.90707"/>
    </g>
    <g clip-path="url(#pad9d63a9aa)">
     <use style="fill:#ffba84;stroke:#ffba84;" x="123.346302" xlink:href="#C0_0_75a1119df9" y="204.918738"/>
    </g>
    <g clip-path="url(#pad9d63a9aa)">
     <use style="fill:#ffba84;stroke:#ffba84;" x="907.264401" xlink:href="#C0_0_75a1119df9" y="579.650495"/>
    </g>
    <g clip-path="url(#pad9d63a9aa)">
     <use style="fill:#ffba84;stroke:#ffba84;" x="306.342104" xlink:href="#C0_0_75a1119df9" y="443.426669"/>
    </g>
    <g clip-path="url(#pad9d63a9aa)">
     <use style="fill:#a5dee4;stroke:#a5dee4;" x="104.042975" xlink:href="#C0_0_75a1119df9" y="152.835393"/>
    </g>
    <g clip-path="url(#pad9d63a9aa)">
     <use style="fill:#a5dee4;stroke:#a5dee4;" x="1014.970539" xlink:href="#C0_0_75a1119df9" y="572.444134"/>
    </g>
    <g clip-path="url(#pad9d63a9aa)">
     <use style="fill:#a5dee4;stroke:#a5dee4;" x="418.005909" xlink:href="#C0_0_75a1119df9" y="112.326102"/>
    </g>
    <g clip-path="url(#pad9d63a9aa)">
     <use style="fill:#a5dee4;stroke:#a5dee4;" x="274.141585" xlink:href="#C0_0_75a1119df9" y="490.160356"/>
    </g>
   </g>
   <g id="patch_3">
    <path d="M 7.2 659.52 
L 7.2 7.2 
" style="fill:none;stroke:#000000;stroke-linecap:square;stroke-linejoin:miter;stroke-width:0.8;"/>
   </g>
   <g id="patch_4">
    <path d="M 1123.2 659.52 
L 1123.2 7.2 
" style="fill:none;stroke:#000000;stroke-linecap:square;stroke-linejoin:miter;stroke-width:0.8;"/>
   </g>
   <g id="patch_5">
    <path d="M 7.2 659.52 
L 1123.2 659.52 
" style="fill:none;stroke:#000000;stroke-linecap:square;stroke-linejoin:miter;stroke-width:0.8;"/>
   </g>
   <g id="patch_6">
    <path d="M 7.2 7.2 
L 1123.2 7.2 
" style="fill:none;stroke:#000000;stroke-linecap:square;stroke-linejoin:miter;stroke-width:0.8;"/>
   </g>
   <g id="text_1">
    <g clip-path="url(#pad9d63a9aa)">
     <!-- 1 -->
     <g transform="translate(179.678767 167.337819)scale(0.12 -0.12)">
      <defs>
       <path d="M 794 531 
L 1825 531 
L 1825 4091 
L 703 3866 
L 703 4441 
L 1819 4666 
L 2450 4666 
L 2450 531 
L 3481 531 
L 3481 0 
L 794 0 
L 794 531 
z
" id="DejaVuSans-31" transform="scale(0.015625)"/>
      </defs>
      <use xlink:href="#DejaVuSans-31"/>
     </g>
    </g>
   </g>
   <g id="text_2">
    <g clip-path="url(#pad9d63a9aa)">
     <!-- 2 -->
     <g transform="translate(946.631984 531.894088)scale(0.12 -0.12)">
      <defs>
       <path d="M 1228 531 
L 3431 531 
L 3431 0 
L 469 0 
L 469 531 
Q 828 903 1448 1529 
Q 2069 2156 2228 2338 
Q 2531 2678 2651 2914 
Q 2772 3150 2772 3378 
Q 2772 3750 2511 3984 
Q 2250 4219 1831 4219 
Q 1534 4219 1204 4116 
Q 875 4013 500 3803 
L 500 4441 
Q 881 4594 1212 4672 
Q 1544 4750 1819 4750 
Q 2544 4750 2975 4387 
Q 3406 4025 3406 3419 
Q 3406 3131 3298 2873 
Q 3191 2616 2906 2266 
Q 2828 2175 2409 1742 
Q 1991 1309 1228 531 
z
" id="DejaVuSans-32" transform="scale(0.015625)"/>
      </defs>
      <use xlink:href="#DejaVuSans-32"/>
     </g>
    </g>
   </g>
   <g id="text_3">
    <g clip-path="url(#pad9d63a9aa)">
     <!-- 3 -->
     <g transform="translate(340.773296 149.99097)scale(0.12 -0.12)">
      <defs>
       <path d="M 2597 2516 
Q 3050 2419 3304 2112 
Q 3559 1806 3559 1356 
Q 3559 666 3084 287 
Q 2609 -91 1734 -91 
Q 1441 -91 1130 -33 
Q 819 25 488 141 
L 488 750 
Q 750 597 1062 519 
Q 1375 441 1716 441 
Q 2309 441 2620 675 
Q 2931 909 2931 1356 
Q 2931 1769 2642 2001 
Q 2353 2234 1838 2234 
L 1294 2234 
L 1294 2753 
L 1863 2753 
Q 2328 2753 2575 2939 
Q 2822 3125 2822 3475 
Q 2822 3834 2567 4026 
Q 2313 4219 1838 4219 
Q 1578 4219 1281 4162 
Q 984 4106 628 3988 
L 628 4550 
Q 988 4650 1302 4700 
Q 1616 4750 1894 4750 
Q 2613 4750 3031 4423 
Q 3450 4097 3450 3541 
Q 3450 3153 3228 2886 
Q 3006 2619 2597 2516 
z
" id="DejaVuSans-33" transform="scale(0.015625)"/>
      </defs>
      <use xlink:href="#DejaVuSans-33"/>
     </g>
    </g>
   </g>
   <g id="text_4">
    <g clip-path="url(#pad9d63a9aa)">
     <!-- 4 -->
     <g transform="translate(240.694716 414.784255)scale(0.12 -0.12)">
      <defs>
       <path d="M 2419 4116 
L 825 1625 
L 2419 1625 
L 2419 4116 
z
M 2253 4666 
L 3047 4666 
L 3047 1625 
L 3713 1625 
L 3713 1100 
L 3047 1100 
L 3047 0 
L 2419 0 
L 2419 1100 
L 313 1100 
L 313 1709 
L 2253 4666 
z
" id="DejaVuSans-34" transform="scale(0.015625)"/>
      </defs>
      <use xlink:href="#DejaVuSans-34"/>
     </g>
    </g>
   </g>
   <g id="text_5">
    <g clip-path="url(#pad9d63a9aa)">
     <!-- 0.188477 -->
     <g transform="translate(235.6026 259.598725)scale(0.12 -0.12)">
      <defs>
       <path d="M 2034 4250 
Q 1547 4250 1301 3770 
Q 1056 3291 1056 2328 
Q 1056 1369 1301 889 
Q 1547 409 2034 409 
Q 2525 409 2770 889 
Q 3016 1369 3016 2328 
Q 3016 3291 2770 3770 
Q 2525 4250 2034 4250 
z
M 2034 4750 
Q 2819 4750 3233 4129 
Q 3647 3509 3647 2328 
Q 3647 1150 3233 529 
Q 2819 -91 2034 -91 
Q 1250 -91 836 529 
Q 422 1150 422 2328 
Q 422 3509 836 4129 
Q 1250 4750 2034 4750 
z
" id="DejaVuSans-30" transform="scale(0.015625)"/>
       <path d="M 684 794 
L 1344 794 
L 1344 0 
L 684 0 
L 684 794 
z
" id="DejaVuSans-2e" transform="scale(0.015625)"/>
       <path d="M 2034 2216 
Q 1584 2216 1326 1975 
Q 1069 1734 1069 1313 
Q 1069 891 1326 650 
Q 1584 409 2034 409 
Q 2484 409 2743 651 
Q 3003 894 3003 1313 
Q 3003 1734 2745 1975 
Q 2488 2216 2034 2216 
z
M 1403 2484 
Q 997 2584 770 2862 
Q 544 3141 544 3541 
Q 544 4100 942 4425 
Q 1341 4750 2034 4750 
Q 2731 4750 3128 4425 
Q 3525 4100 3525 3541 
Q 3525 3141 3298 2862 
Q 3072 2584 2669 2484 
Q 3125 2378 3379 2068 
Q 3634 1759 3634 1313 
Q 3634 634 3220 271 
Q 2806 -91 2034 -91 
Q 1263 -91 848 271 
Q 434 634 434 1313 
Q 434 1759 690 2068 
Q 947 2378 1403 2484 
z
M 1172 3481 
Q 1172 3119 1398 2916 
Q 1625 2713 2034 2713 
Q 2441 2713 2670 2916 
Q 2900 3119 2900 3481 
Q 2900 3844 2670 4047 
Q 2441 4250 2034 4250 
Q 1625 4250 1398 4047 
Q 1172 3844 1172 3481 
z
" id="DejaVuSans-38" transform="scale(0.015625)"/>
       <path d="M 525 4666 
L 3525 4666 
L 3525 4397 
L 1831 0 
L 1172 0 
L 2766 4134 
L 525 4134 
L 525 4666 
z
" id="DejaVuSans-37" transform="scale(0.015625)"/>
      </defs>
      <use xlink:href="#DejaVuSans-30"/>
      <use x="63.623047" xlink:href="#DejaVuSans-2e"/>
      <use x="95.410156" xlink:href="#DejaVuSans-31"/>
      <use x="159.033203" xlink:href="#DejaVuSans-38"/>
      <use x="222.65625" xlink:href="#DejaVuSans-38"/>
      <use x="286.279297" xlink:href="#DejaVuSans-34"/>
      <use x="349.902344" xlink:href="#DejaVuSans-37"/>
      <use x="413.525391" xlink:href="#DejaVuSans-37"/>
     </g>
    </g>
   </g>
   <g id="text_6">
    <g clip-path="url(#pad9d63a9aa)">
     <!-- 0.038086 -->
     <g transform="translate(857.842273 490.687947)scale(0.12 -0.12)">
      <defs>
       <path d="M 2113 2584 
Q 1688 2584 1439 2293 
Q 1191 2003 1191 1497 
Q 1191 994 1439 701 
Q 1688 409 2113 409 
Q 2538 409 2786 701 
Q 3034 994 3034 1497 
Q 3034 2003 2786 2293 
Q 2538 2584 2113 2584 
z
M 3366 4563 
L 3366 3988 
Q 3128 4100 2886 4159 
Q 2644 4219 2406 4219 
Q 1781 4219 1451 3797 
Q 1122 3375 1075 2522 
Q 1259 2794 1537 2939 
Q 1816 3084 2150 3084 
Q 2853 3084 3261 2657 
Q 3669 2231 3669 1497 
Q 3669 778 3244 343 
Q 2819 -91 2113 -91 
Q 1303 -91 875 529 
Q 447 1150 447 2328 
Q 447 3434 972 4092 
Q 1497 4750 2381 4750 
Q 2619 4750 2861 4703 
Q 3103 4656 3366 4563 
z
" id="DejaVuSans-36" transform="scale(0.015625)"/>
      </defs>
      <use xlink:href="#DejaVuSans-30"/>
      <use x="63.623047" xlink:href="#DejaVuSans-2e"/>
      <use x="95.410156" xlink:href="#DejaVuSans-30"/>
      <use x="159.033203" xlink:href="#DejaVuSans-33"/>
      <use x="222.65625" xlink:href="#DejaVuSans-38"/>
      <use x="286.279297" xlink:href="#DejaVuSans-30"/>
      <use x="349.902344" xlink:href="#DejaVuSans-38"/>
      <use x="413.525391" xlink:href="#DejaVuSans-36"/>
     </g>
    </g>
   </g>
   <g id="text_7">
    <g clip-path="url(#pad9d63a9aa)">
     <!-- -0.26172 -->
     <g transform="translate(312.093733 67.117531)scale(0.12 -0.12)">
      <defs>
       <path d="M 313 2009 
L 1997 2009 
L 1997 1497 
L 313 1497 
L 313 2009 
z
" id="DejaVuSans-2d" transform="scale(0.015625)"/>
      </defs>
      <use xlink:href="#DejaVuSans-2d"/>
      <use x="36.083984" xlink:href="#DejaVuSans-30"/>
      <use x="99.707031" xlink:href="#DejaVuSans-2e"/>
      <use x="131.494141" xlink:href="#DejaVuSans-32"/>
      <use x="195.117188" xlink:href="#DejaVuSans-36"/>
      <use x="258.740234" xlink:href="#DejaVuSans-31"/>
      <use x="322.363281" xlink:href="#DejaVuSans-37"/>
      <use x="385.986328" xlink:href="#DejaVuSans-32"/>
     </g>
    </g>
   </g>
   <g id="text_8">
    <g clip-path="url(#pad9d63a9aa)">
     <!-- 0.020752 -->
     <g transform="translate(197.387916 501.92756)scale(0.12 -0.12)">
      <defs>
       <path d="M 691 4666 
L 3169 4666 
L 3169 4134 
L 1269 4134 
L 1269 2991 
Q 1406 3038 1543 3061 
Q 1681 3084 1819 3084 
Q 2600 3084 3056 2656 
Q 3513 2228 3513 1497 
Q 3513 744 3044 326 
Q 2575 -91 1722 -91 
Q 1428 -91 1123 -41 
Q 819 9 494 109 
L 494 744 
Q 775 591 1075 516 
Q 1375 441 1709 441 
Q 2250 441 2565 725 
Q 2881 1009 2881 1497 
Q 2881 1984 2565 2268 
Q 2250 2553 1709 2553 
Q 1456 2553 1204 2497 
Q 953 2441 691 2322 
L 691 4666 
z
" id="DejaVuSans-35" transform="scale(0.015625)"/>
      </defs>
      <use xlink:href="#DejaVuSans-30"/>
      <use x="63.623047" xlink:href="#DejaVuSans-2e"/>
      <use x="95.410156" xlink:href="#DejaVuSans-30"/>
      <use x="159.033203" xlink:href="#DejaVuSans-32"/>
      <use x="222.65625" xlink:href="#DejaVuSans-30"/>
      <use x="286.279297" xlink:href="#DejaVuSans-37"/>
      <use x="349.902344" xlink:href="#DejaVuSans-35"/>
      <use x="413.525391" xlink:href="#DejaVuSans-32"/>
     </g>
    </g>
   </g>
   <g id="text_9">
    <g clip-path="url(#pad9d63a9aa)">
     <!-- -0.25977 -->
     <g transform="translate(236.710071 145.882802)scale(0.12 -0.12)">
      <defs>
       <path d="M 703 97 
L 703 672 
Q 941 559 1184 500 
Q 1428 441 1663 441 
Q 2288 441 2617 861 
Q 2947 1281 2994 2138 
Q 2813 1869 2534 1725 
Q 2256 1581 1919 1581 
Q 1219 1581 811 2004 
Q 403 2428 403 3163 
Q 403 3881 828 4315 
Q 1253 4750 1959 4750 
Q 2769 4750 3195 4129 
Q 3622 3509 3622 2328 
Q 3622 1225 3098 567 
Q 2575 -91 1691 -91 
Q 1453 -91 1209 -44 
Q 966 3 703 97 
z
M 1959 2075 
Q 2384 2075 2632 2365 
Q 2881 2656 2881 3163 
Q 2881 3666 2632 3958 
Q 2384 4250 1959 4250 
Q 1534 4250 1286 3958 
Q 1038 3666 1038 3163 
Q 1038 2656 1286 2365 
Q 1534 2075 1959 2075 
z
" id="DejaVuSans-39" transform="scale(0.015625)"/>
      </defs>
      <use xlink:href="#DejaVuSans-2d"/>
      <use x="36.083984" xlink:href="#DejaVuSans-30"/>
      <use x="99.707031" xlink:href="#DejaVuSans-2e"/>
      <use x="131.494141" xlink:href="#DejaVuSans-32"/>
      <use x="195.117188" xlink:href="#DejaVuSans-35"/>
      <use x="258.740234" xlink:href="#DejaVuSans-39"/>
      <use x="322.363281" xlink:href="#DejaVuSans-37"/>
      <use x="385.986328" xlink:href="#DejaVuSans-37"/>
     </g>
    </g>
   </g>
   <g id="text_10">
    <g clip-path="url(#pad9d63a9aa)">
     <!-- -0.22656 -->
     <g transform="translate(999.380462 515.223346)scale(0.12 -0.12)">
      <use xlink:href="#DejaVuSans-2d"/>
      <use x="36.083984" xlink:href="#DejaVuSans-30"/>
      <use x="99.707031" xlink:href="#DejaVuSans-2e"/>
      <use x="131.494141" xlink:href="#DejaVuSans-32"/>
      <use x="195.117188" xlink:href="#DejaVuSans-32"/>
      <use x="258.740234" xlink:href="#DejaVuSans-36"/>
      <use x="322.363281" xlink:href="#DejaVuSans-35"/>
      <use x="385.986328" xlink:href="#DejaVuSans-36"/>
     </g>
    </g>
   </g>
   <g id="text_11">
    <g clip-path="url(#pad9d63a9aa)">
     <!-- -0.06079 -->
     <g transform="translate(388.25187 173.537978)scale(0.12 -0.12)">
      <use xlink:href="#DejaVuSans-2d"/>
      <use x="36.083984" xlink:href="#DejaVuSans-30"/>
      <use x="99.707031" xlink:href="#DejaVuSans-2e"/>
      <use x="131.494141" xlink:href="#DejaVuSans-30"/>
      <use x="195.117188" xlink:href="#DejaVuSans-36"/>
      <use x="258.740234" xlink:href="#DejaVuSans-30"/>
      <use x="322.363281" xlink:href="#DejaVuSans-37"/>
      <use x="385.986328" xlink:href="#DejaVuSans-39"/>
     </g>
    </g>
   </g>
   <g id="text_12">
    <g clip-path="url(#pad9d63a9aa)">
     <!-- 0.198242 -->
     <g transform="translate(91.515753 105.429486)scale(0.12 -0.12)">
      <use xlink:href="#DejaVuSans-30"/>
      <use x="63.623047" xlink:href="#DejaVuSans-2e"/>
      <use x="95.410156" xlink:href="#DejaVuSans-31"/>
      <use x="159.033203" xlink:href="#DejaVuSans-39"/>
      <use x="222.65625" xlink:href="#DejaVuSans-38"/>
      <use x="286.279297" xlink:href="#DejaVuSans-32"/>
      <use x="349.902344" xlink:href="#DejaVuSans-34"/>
      <use x="413.525391" xlink:href="#DejaVuSans-32"/>
     </g>
    </g>
   </g>
   <g id="text_13">
    <g clip-path="url(#pad9d63a9aa)">
     <!-- 0.339844 -->
     <g transform="translate(929.454577 606.224969)scale(0.12 -0.12)">
      <use xlink:href="#DejaVuSans-30"/>
      <use x="63.623047" xlink:href="#DejaVuSans-2e"/>
      <use x="95.410156" xlink:href="#DejaVuSans-33"/>
      <use x="159.033203" xlink:href="#DejaVuSans-33"/>
      <use x="222.65625" xlink:href="#DejaVuSans-39"/>
      <use x="286.279297" xlink:href="#DejaVuSans-38"/>
      <use x="349.902344" xlink:href="#DejaVuSans-34"/>
      <use x="413.525391" xlink:href="#DejaVuSans-34"/>
     </g>
    </g>
   </g>
   <g id="text_14">
    <g clip-path="url(#pad9d63a9aa)">
     <!-- -0.3418 -->
     <g transform="translate(365.228024 73.219271)scale(0.12 -0.12)">
      <use xlink:href="#DejaVuSans-2d"/>
      <use x="36.083984" xlink:href="#DejaVuSans-30"/>
      <use x="99.707031" xlink:href="#DejaVuSans-2e"/>
      <use x="131.494141" xlink:href="#DejaVuSans-33"/>
      <use x="195.117188" xlink:href="#DejaVuSans-34"/>
      <use x="258.740234" xlink:href="#DejaVuSans-31"/>
      <use x="322.363281" xlink:href="#DejaVuSans-38"/>
     </g>
    </g>
   </g>
   <g id="text_15">
    <g clip-path="url(#pad9d63a9aa)">
     <!-- -0.01355 -->
     <g transform="translate(157.663864 476.090875)scale(0.12 -0.12)">
      <use xlink:href="#DejaVuSans-2d"/>
      <use x="36.083984" xlink:href="#DejaVuSans-30"/>
      <use x="99.707031" xlink:href="#DejaVuSans-2e"/>
      <use x="131.494141" xlink:href="#DejaVuSans-30"/>
      <use x="195.117188" xlink:href="#DejaVuSans-31"/>
      <use x="258.740234" xlink:href="#DejaVuSans-33"/>
      <use x="322.363281" xlink:href="#DejaVuSans-35"/>
      <use x="385.986328" xlink:href="#DejaVuSans-35"/>
     </g>
    </g>
   </g>
   <g id="text_16">
    <g clip-path="url(#pad9d63a9aa)">
     <!-- -0.0918 -->
     <g transform="translate(146.172728 86.048194)scale(0.12 -0.12)">
      <use xlink:href="#DejaVuSans-2d"/>
      <use x="36.083984" xlink:href="#DejaVuSans-30"/>
      <use x="99.707031" xlink:href="#DejaVuSans-2e"/>
      <use x="131.494141" xlink:href="#DejaVuSans-30"/>
      <use x="195.117188" xlink:href="#DejaVuSans-39"/>
      <use x="258.740234" xlink:href="#DejaVuSans-31"/>
      <use x="322.363281" xlink:href="#DejaVuSans-38"/>
     </g>
    </g>
   </g>
   <g id="text_17">
    <g clip-path="url(#pad9d63a9aa)">
     <!-- -0.02637 -->
     <g transform="translate(953.579407 466.084068)scale(0.12 -0.12)">
      <use xlink:href="#DejaVuSans-2d"/>
      <use x="36.083984" xlink:href="#DejaVuSans-30"/>
      <use x="99.707031" xlink:href="#DejaVuSans-2e"/>
      <use x="131.494141" xlink:href="#DejaVuSans-30"/>
      <use x="195.117188" xlink:href="#DejaVuSans-32"/>
      <use x="258.740234" xlink:href="#DejaVuSans-36"/>
      <use x="322.363281" xlink:href="#DejaVuSans-33"/>
      <use x="385.986328" xlink:href="#DejaVuSans-37"/>
     </g>
    </g>
   </g>
   <g id="text_18">
    <g clip-path="url(#pad9d63a9aa)">
     <!-- -0.05518 -->
     <g transform="translate(145.485911 423.21832)scale(0.12 -0.12)">
      <use xlink:href="#DejaVuSans-2d"/>
      <use x="36.083984" xlink:href="#DejaVuSans-30"/>
      <use x="99.707031" xlink:href="#DejaVuSans-2e"/>
      <use x="131.494141" xlink:href="#DejaVuSans-30"/>
      <use x="195.117188" xlink:href="#DejaVuSans-35"/>
      <use x="258.740234" xlink:href="#DejaVuSans-35"/>
      <use x="322.363281" xlink:href="#DejaVuSans-31"/>
      <use x="385.986328" xlink:href="#DejaVuSans-38"/>
     </g>
    </g>
   </g>
   <g id="text_19">
    <g clip-path="url(#pad9d63a9aa)">
     <!-- -0.03784 -->
     <g transform="translate(96.36974 208.229988)scale(0.12 -0.12)">
      <use xlink:href="#DejaVuSans-2d"/>
      <use x="36.083984" xlink:href="#DejaVuSans-30"/>
      <use x="99.707031" xlink:href="#DejaVuSans-2e"/>
      <use x="131.494141" xlink:href="#DejaVuSans-30"/>
      <use x="195.117188" xlink:href="#DejaVuSans-33"/>
      <use x="258.740234" xlink:href="#DejaVuSans-37"/>
      <use x="322.363281" xlink:href="#DejaVuSans-38"/>
      <use x="385.986328" xlink:href="#DejaVuSans-34"/>
     </g>
    </g>
   </g>
   <g id="text_20">
    <g clip-path="url(#pad9d63a9aa)">
     <!-- -0.07715 -->
     <g transform="translate(880.287838 582.961745)scale(0.12 -0.12)">
      <use xlink:href="#DejaVuSans-2d"/>
      <use x="36.083984" xlink:href="#DejaVuSans-30"/>
      <use x="99.707031" xlink:href="#DejaVuSans-2e"/>
      <use x="131.494141" xlink:href="#DejaVuSans-30"/>
      <use x="195.117188" xlink:href="#DejaVuSans-37"/>
      <use x="258.740234" xlink:href="#DejaVuSans-37"/>
      <use x="322.363281" xlink:href="#DejaVuSans-31"/>
      <use x="385.986328" xlink:href="#DejaVuSans-35"/>
     </g>
    </g>
   </g>
   <g id="text_21">
    <g clip-path="url(#pad9d63a9aa)">
     <!-- 0.3125 -->
     <g transform="translate(285.347729 446.737919)scale(0.12 -0.12)">
      <use xlink:href="#DejaVuSans-30"/>
      <use x="63.623047" xlink:href="#DejaVuSans-2e"/>
      <use x="95.410156" xlink:href="#DejaVuSans-33"/>
      <use x="159.033203" xlink:href="#DejaVuSans-31"/>
      <use x="222.65625" xlink:href="#DejaVuSans-32"/>
      <use x="286.279297" xlink:href="#DejaVuSans-35"/>
     </g>
    </g>
   </g>
   <g id="text_22">
    <g clip-path="url(#pad9d63a9aa)">
     <!-- 0.0421 -->
     <g transform="translate(83.0486 156.146643)scale(0.12 -0.12)">
      <use xlink:href="#DejaVuSans-30"/>
      <use x="63.623047" xlink:href="#DejaVuSans-2e"/>
      <use x="95.410156" xlink:href="#DejaVuSans-30"/>
      <use x="159.033203" xlink:href="#DejaVuSans-34"/>
      <use x="222.65625" xlink:href="#DejaVuSans-32"/>
      <use x="286.279297" xlink:href="#DejaVuSans-31"/>
     </g>
    </g>
   </g>
   <g id="text_23">
    <g clip-path="url(#pad9d63a9aa)">
     <!-- -0.0342 -->
     <g transform="translate(991.811477 575.755384)scale(0.12 -0.12)">
      <use xlink:href="#DejaVuSans-2d"/>
      <use x="36.083984" xlink:href="#DejaVuSans-30"/>
      <use x="99.707031" xlink:href="#DejaVuSans-2e"/>
      <use x="131.494141" xlink:href="#DejaVuSans-30"/>
      <use x="195.117188" xlink:href="#DejaVuSans-33"/>
      <use x="258.740234" xlink:href="#DejaVuSans-34"/>
      <use x="322.363281" xlink:href="#DejaVuSans-32"/>
     </g>
    </g>
   </g>
   <g id="text_24">
    <g clip-path="url(#pad9d63a9aa)">
     <!-- 0.02188 -->
     <g transform="translate(393.194034 115.637352)scale(0.12 -0.12)">
      <use xlink:href="#DejaVuSans-30"/>
      <use x="63.623047" xlink:href="#DejaVuSans-2e"/>
      <use x="95.410156" xlink:href="#DejaVuSans-30"/>
      <use x="159.033203" xlink:href="#DejaVuSans-32"/>
      <use x="222.65625" xlink:href="#DejaVuSans-31"/>
      <use x="286.279297" xlink:href="#DejaVuSans-38"/>
      <use x="349.902344" xlink:href="#DejaVuSans-38"/>
     </g>
    </g>
   </g>
   <g id="text_25">
    <g clip-path="url(#pad9d63a9aa)">
     <!-- 0.5142 -->
     <g transform="translate(253.14721 493.471606)scale(0.12 -0.12)">
      <use xlink:href="#DejaVuSans-30"/>
      <use x="63.623047" xlink:href="#DejaVuSans-2e"/>
      <use x="95.410156" xlink:href="#DejaVuSans-35"/>
      <use x="159.033203" xlink:href="#DejaVuSans-31"/>
      <use x="222.65625" xlink:href="#DejaVuSans-34"/>
      <use x="286.279297" xlink:href="#DejaVuSans-32"/>
     </g>
    </g>
   </g>
   <g id="legend_1">
    <g id="patch_7">
     <path d="M 1071.489063 117.946875 
L 1116.2 117.946875 
Q 1118.2 117.946875 1118.2 115.946875 
L 1118.2 14.2 
Q 1118.2 12.2 1116.2 12.2 
L 1071.489063 12.2 
Q 1069.489063 12.2 1069.489063 14.2 
L 1069.489063 115.946875 
Q 1069.489063 117.946875 1071.489063 117.946875 
z
" style="fill:#ffffff;opacity:0.8;stroke:#cccccc;stroke-linejoin:miter;"/>
    </g>
    <g id="line2d_1">
     <path d="M 1073.489063 20.298437 
L 1093.489063 20.298437 
" style="fill:none;stroke:#ffffff;stroke-linecap:square;stroke-width:1.5;"/>
    </g>
    <g id="line2d_2">
     <defs>
      <path d="M 0 10 
C 2.652031 10 5.195799 8.946337 7.071068 7.071068 
C 8.946337 5.195799 10 2.652031 10 0 
C 10 -2.652031 8.946337 -5.195799 7.071068 -7.071068 
C 5.195799 -8.946337 2.652031 -10 0 -10 
C -2.652031 -10 -5.195799 -8.946337 -7.071068 -7.071068 
C -8.946337 -5.195799 -10 -2.652031 -10 0 
C -10 2.652031 -8.946337 5.195799 -7.071068 7.071068 
C -5.195799 8.946337 -2.652031 10 0 10 
z
" id="mf61328033f" style="stroke:#ffffff;"/>
     </defs>
     <g>
      <use style="fill:#1e90ff;stroke:#ffffff;" x="1083.489063" xlink:href="#mf61328033f" y="20.298437"/>
     </g>
    </g>
    <g id="text_26">
     <!-- K -->
     <g transform="translate(1101.489063 23.798437)scale(0.1 -0.1)">
      <defs>
       <path d="M 628 4666 
L 1259 4666 
L 1259 2694 
L 3353 4666 
L 4166 4666 
L 1850 2491 
L 4331 0 
L 3500 0 
L 1259 2247 
L 1259 0 
L 628 0 
L 628 4666 
z
" id="DejaVuSans-4b" transform="scale(0.015625)"/>
      </defs>
      <use xlink:href="#DejaVuSans-4b"/>
     </g>
    </g>
    <g id="line2d_3">
     <path d="M 1073.489063 34.976562 
L 1093.489063 34.976562 
" style="fill:none;stroke:#ffffff;stroke-linecap:square;stroke-width:1.5;"/>
    </g>
    <g id="line2d_4">
     <defs>
      <path d="M 0 5 
C 1.326016 5 2.597899 4.473168 3.535534 3.535534 
C 4.473168 2.597899 5 1.326016 5 0 
C 5 -1.326016 4.473168 -2.597899 3.535534 -3.535534 
C 2.597899 -4.473168 1.326016 -5 0 -5 
C -1.326016 -5 -2.597899 -4.473168 -3.535534 -3.535534 
C -4.473168 -2.597899 -5 -1.326016 -5 0 
C -5 1.326016 -4.473168 2.597899 -3.535534 3.535534 
C -2.597899 4.473168 -1.326016 5 0 5 
z
" id="m9fce8a756f" style="stroke:#ffffff;"/>
     </defs>
     <g>
      <use style="fill:#a8d8b9;stroke:#ffffff;" x="1083.489063" xlink:href="#m9fce8a756f" y="34.976562"/>
     </g>
    </g>
    <g id="text_27">
     <!-- S1 -->
     <g transform="translate(1101.489063 38.476562)scale(0.1 -0.1)">
      <defs>
       <path d="M 3425 4513 
L 3425 3897 
Q 3066 4069 2747 4153 
Q 2428 4238 2131 4238 
Q 1616 4238 1336 4038 
Q 1056 3838 1056 3469 
Q 1056 3159 1242 3001 
Q 1428 2844 1947 2747 
L 2328 2669 
Q 3034 2534 3370 2195 
Q 3706 1856 3706 1288 
Q 3706 609 3251 259 
Q 2797 -91 1919 -91 
Q 1588 -91 1214 -16 
Q 841 59 441 206 
L 441 856 
Q 825 641 1194 531 
Q 1563 422 1919 422 
Q 2459 422 2753 634 
Q 3047 847 3047 1241 
Q 3047 1584 2836 1778 
Q 2625 1972 2144 2069 
L 1759 2144 
Q 1053 2284 737 2584 
Q 422 2884 422 3419 
Q 422 4038 858 4394 
Q 1294 4750 2059 4750 
Q 2388 4750 2728 4690 
Q 3069 4631 3425 4513 
z
" id="DejaVuSans-53" transform="scale(0.015625)"/>
      </defs>
      <use xlink:href="#DejaVuSans-53"/>
      <use x="63.476562" xlink:href="#DejaVuSans-31"/>
     </g>
    </g>
    <g id="line2d_5">
     <path d="M 1073.489063 49.654688 
L 1093.489063 49.654688 
" style="fill:none;stroke:#ffffff;stroke-linecap:square;stroke-width:1.5;"/>
    </g>
    <g id="line2d_6">
     <defs>
      <path d="M 0 5 
C 1.326016 5 2.597899 4.473168 3.535534 3.535534 
C 4.473168 2.597899 5 1.326016 5 0 
C 5 -1.326016 4.473168 -2.597899 3.535534 -3.535534 
C 2.597899 -4.473168 1.326016 -5 0 -5 
C -1.326016 -5 -2.597899 -4.473168 -3.535534 -3.535534 
C -4.473168 -2.597899 -5 -1.326016 -5 0 
C -5 1.326016 -4.473168 2.597899 -3.535534 3.535534 
C -2.597899 4.473168 -1.326016 5 0 5 
z
" id="m40dd432947" style="stroke:#ffffff;"/>
     </defs>
     <g>
      <use style="fill:#81c7d4;stroke:#ffffff;" x="1083.489063" xlink:href="#m40dd432947" y="49.654688"/>
     </g>
    </g>
    <g id="text_28">
     <!-- S2 -->
     <g transform="translate(1101.489063 53.154688)scale(0.1 -0.1)">
      <use xlink:href="#DejaVuSans-53"/>
      <use x="63.476562" xlink:href="#DejaVuSans-32"/>
     </g>
    </g>
    <g id="line2d_7">
     <path d="M 1073.489063 64.332812 
L 1093.489063 64.332812 
" style="fill:none;stroke:#ffffff;stroke-linecap:square;stroke-width:1.5;"/>
    </g>
    <g id="line2d_8">
     <defs>
      <path d="M 0 5 
C 1.326016 5 2.597899 4.473168 3.535534 3.535534 
C 4.473168 2.597899 5 1.326016 5 0 
C 5 -1.326016 4.473168 -2.597899 3.535534 -3.535534 
C 2.597899 -4.473168 1.326016 -5 0 -5 
C -1.326016 -5 -2.597899 -4.473168 -3.535534 -3.535534 
C -4.473168 -2.597899 -5 -1.326016 -5 0 
C -5 1.326016 -4.473168 2.597899 -3.535534 3.535534 
C -2.597899 4.473168 -1.326016 5 0 5 
z
" id="m895adf1833" style="stroke:#ffffff;"/>
     </defs>
     <g>
      <use style="fill:#fedfe1;stroke:#ffffff;" x="1083.489063" xlink:href="#m895adf1833" y="64.332812"/>
     </g>
    </g>
    <g id="text_29">
     <!-- S3 -->
     <g transform="translate(1101.489063 67.832812)scale(0.1 -0.1)">
      <use xlink:href="#DejaVuSans-53"/>
      <use x="63.476562" xlink:href="#DejaVuSans-33"/>
     </g>
    </g>
    <g id="line2d_9">
     <path d="M 1073.489063 79.010937 
L 1093.489063 79.010937 
" style="fill:none;stroke:#ffffff;stroke-linecap:square;stroke-width:1.5;"/>
    </g>
    <g id="line2d_10">
     <defs>
      <path d="M 0 5 
C 1.326016 5 2.597899 4.473168 3.535534 3.535534 
C 4.473168 2.597899 5 1.326016 5 0 
C 5 -1.326016 4.473168 -2.597899 3.535534 -3.535534 
C 2.597899 -4.473168 1.326016 -5 0 -5 
C -1.326016 -5 -2.597899 -4.473168 -3.535534 -3.535534 
C -4.473168 -2.597899 -5 -1.326016 -5 0 
C -5 1.326016 -4.473168 2.597899 -3.535534 3.535534 
C -2.597899 4.473168 -1.326016 5 0 5 
z
" id="m3dd90ac716" style="stroke:#ffffff;"/>
     </defs>
     <g>
      <use style="fill:#d7c4bb;stroke:#ffffff;" x="1083.489063" xlink:href="#m3dd90ac716" y="79.010937"/>
     </g>
    </g>
    <g id="text_30">
     <!-- S4 -->
     <g transform="translate(1101.489063 82.510937)scale(0.1 -0.1)">
      <use xlink:href="#DejaVuSans-53"/>
      <use x="63.476562" xlink:href="#DejaVuSans-34"/>
     </g>
    </g>
    <g id="line2d_11">
     <path d="M 1073.489063 93.689062 
L 1093.489063 93.689062 
" style="fill:none;stroke:#ffffff;stroke-linecap:square;stroke-width:1.5;"/>
    </g>
    <g id="line2d_12">
     <defs>
      <path d="M 0 5 
C 1.326016 5 2.597899 4.473168 3.535534 3.535534 
C 4.473168 2.597899 5 1.326016 5 0 
C 5 -1.326016 4.473168 -2.597899 3.535534 -3.535534 
C 2.597899 -4.473168 1.326016 -5 0 -5 
C -1.326016 -5 -2.597899 -4.473168 -3.535534 -3.535534 
C -4.473168 -2.597899 -5 -1.326016 -5 0 
C -5 1.326016 -4.473168 2.597899 -3.535534 3.535534 
C -2.597899 4.473168 -1.326016 5 0 5 
z
" id="m4bef29f4b1" style="stroke:#ffffff;"/>
     </defs>
     <g>
      <use style="fill:#ffba84;stroke:#ffffff;" x="1083.489063" xlink:href="#m4bef29f4b1" y="93.689062"/>
     </g>
    </g>
    <g id="text_31">
     <!-- S5 -->
     <g transform="translate(1101.489063 97.189062)scale(0.1 -0.1)">
      <use xlink:href="#DejaVuSans-53"/>
      <use x="63.476562" xlink:href="#DejaVuSans-35"/>
     </g>
    </g>
    <g id="line2d_13">
     <path d="M 1073.489063 108.367188 
L 1093.489063 108.367188 
" style="fill:none;stroke:#ffffff;stroke-linecap:square;stroke-width:1.5;"/>
    </g>
    <g id="line2d_14">
     <defs>
      <path d="M 0 5 
C 1.326016 5 2.597899 4.473168 3.535534 3.535534 
C 4.473168 2.597899 5 1.326016 5 0 
C 5 -1.326016 4.473168 -2.597899 3.535534 -3.535534 
C 2.597899 -4.473168 1.326016 -5 0 -5 
C -1.326016 -5 -2.597899 -4.473168 -3.535534 -3.535534 
C -4.473168 -2.597899 -5 -1.326016 -5 0 
C -5 1.326016 -4.473168 2.597899 -3.535534 3.535534 
C -2.597899 4.473168 -1.326016 5 0 5 
z
" id="m7e581db2f9" style="stroke:#ffffff;"/>
     </defs>
     <g>
      <use style="fill:#a5dee4;stroke:#ffffff;" x="1083.489063" xlink:href="#m7e581db2f9" y="108.367188"/>
     </g>
    </g>
    <g id="text_32">
     <!-- S6 -->
     <g transform="translate(1101.489063 111.867188)scale(0.1 -0.1)">
      <use xlink:href="#DejaVuSans-53"/>
      <use x="63.476562" xlink:href="#DejaVuSans-36"/>
     </g>
    </g>
   </g>
  </g>
 </g>
 <defs>
  <clipPath id="pad9d63a9aa">
   <rect height="652.32" width="1116" x="7.2" y="7.2"/>
  </clipPath>
 </defs>
</svg>
