<?xml version="1.0" encoding="utf-8" standalone="no"?>
<!DOCTYPE svg PUBLIC "-//W3C//DTD SVG 1.1//EN"
  "http://www.w3.org/Graphics/SVG/1.1/DTD/svg11.dtd">
<svg height="1087.2pt" version="1.1" viewBox="0 0 1087.2 1087.2" width="1087.2pt" xmlns="http://www.w3.org/2000/svg" xmlns:xlink="http://www.w3.org/1999/xlink">
 <metadata>
  <rdf:RDF xmlns:cc="http://creativecommons.org/ns#" xmlns:dc="http://purl.org/dc/elements/1.1/" xmlns:rdf="http://www.w3.org/1999/02/22-rdf-syntax-ns#">
   <cc:Work>
    <dc:type rdf:resource="http://purl.org/dc/dcmitype/StillImage"/>
    <dc:date>2022-10-20T14:21:03.185306</dc:date>
    <dc:format>image/svg+xml</dc:format>
    <dc:creator>
     <cc:Agent>
      <dc:title>Matplotlib v3.4.2, https://matplotlib.org/</dc:title>
     </cc:Agent>
    </dc:creator>
   </cc:Work>
  </rdf:RDF>
 </metadata>
 <defs>
  <style type="text/css">*{stroke-linecap:butt;stroke-linejoin:round;}</style>
 </defs>
 <g id="figure_1">
  <g id="patch_1">
   <path d="M 0 1087.2 
L 1087.2 1087.2 
L 1087.2 0 
L 0 0 
z
" style="fill:none;"/>
  </g>
  <g id="patch_2">
   <path d="M 0 1087.2 
L 1087.2 1087.2 
L 1087.2 0 
L 0 0 
z
" style="fill:none;"/>
  </g>
  <g id="pane3d_1">
   <g id="patch_3">
    <path d="M 82.091098 819.131322 
L 441.120044 518.18614 
L 436.129198 84.169389 
L 59.918865 358.710554 
" style="fill:#ffffff;stroke:#ffffff;stroke-linejoin:miter;"/>
   </g>
  </g>
  <g id="pane3d_2">
   <g id="patch_4">
    <path d="M 441.120044 518.18614 
L 1017.233401 685.639548 
L 1037.792855 236.673588 
L 436.129198 84.169389 
" style="fill:#ffffff;stroke:#ffffff;stroke-linejoin:miter;"/>
   </g>
  </g>
  <g id="pane3d_3">
   <g id="patch_5">
    <path d="M 82.091098 819.131322 
L 692.799394 1018.58865 
L 1017.233401 685.639548 
L 441.120044 518.18614 
" style="fill:#ffffff;stroke:#ffffff;stroke-linejoin:miter;"/>
   </g>
  </g>
  <g id="axis3d_1">
   <g id="line2d_1">
    <path d="M 82.091098 819.131322 
L 692.799394 1018.58865 
" style="fill:none;stroke:#000000;stroke-linecap:square;stroke-width:0.8;"/>
   </g>
   <g id="text_1">
    <!-- X -->
    <g transform="translate(360.705276 954.095522)scale(0.1 -0.1)">
     <defs>
      <path d="M 3000 125 
L 2400 125 
L 1550 1875 
L 700 125 
L 100 125 
L 1275 2375 
L 225 4400 
L 825 4400 
L 1550 2850 
L 2275 4400 
L 2875 4400 
L 1825 2375 
L 3000 125 
z
" id="SimHei%2BMSMincho%2BWFMSansClassic-Regular-58" transform="scale(0.015625)"/>
     </defs>
     <use xlink:href="#SimHei%2BMSMincho%2BWFMSansClassic-Regular-58"/>
    </g>
   </g>
   <g id="Line3DCollection_1">
    <path d="M 153.386556 842.416419 
L 508.639531 537.811389 
L 506.511829 102.009335 
" style="fill:none;stroke:#b0b0b0;stroke-width:0.8;"/>
    <path d="M 236.268927 869.485801 
L 587.044678 560.60067 
L 588.285402 122.736552 
" style="fill:none;stroke:#b0b0b0;stroke-width:0.8;"/>
    <path d="M 320.370836 896.953484 
L 666.507394 583.697344 
L 671.209911 143.755497 
" style="fill:none;stroke:#b0b0b0;stroke-width:0.8;"/>
    <path d="M 405.719399 924.828324 
L 747.049224 607.107674 
L 755.309828 165.072375 
" style="fill:none;stroke:#b0b0b0;stroke-width:0.8;"/>
    <path d="M 492.342541 953.119442 
L 828.692298 630.838093 
L 840.610321 186.693563 
" style="fill:none;stroke:#b0b0b0;stroke-width:0.8;"/>
    <path d="M 580.269028 981.836233 
L 911.459358 654.89521 
L 927.137284 208.625626 
" style="fill:none;stroke:#b0b0b0;stroke-width:0.8;"/>
    <path d="M 669.5285 1010.988376 
L 995.373777 679.285819 
L 1014.91736 230.875317 
" style="fill:none;stroke:#b0b0b0;stroke-width:0.8;"/>
   </g>
   <g id="xtick_1">
    <g id="line2d_2">
     <path d="M 156.480841 839.763282 
L 147.184668 847.734112 
" style="fill:none;stroke:#000000;stroke-linecap:square;stroke-width:0.8;"/>
    </g>
    <g id="text_2">
     <!-- −150 -->
     <g transform="translate(135.88702 865.015893)scale(0.1 -0.1)">
      <defs>
       <path d="M 0 2200 
L 0 2425 
L 3200 2425 
L 3200 2200 
L 0 2200 
z
" id="SimHei%2BMSMincho%2BWFMSansClassic-Regular-2212" transform="scale(0.015625)"/>
       <path d="M 1400 3600 
Q 1075 3275 575 2975 
L 575 3450 
Q 1200 3875 1600 4450 
L 1900 4450 
L 1900 150 
L 1400 150 
L 1400 3600 
z
" id="SimHei%2BMSMincho%2BWFMSansClassic-Regular-31" transform="scale(0.015625)"/>
       <path d="M 550 1325 
Q 725 650 1150 575 
Q 1575 500 1837 662 
Q 2100 825 2212 1087 
Q 2325 1350 2312 1675 
Q 2300 2000 2137 2225 
Q 1975 2450 1725 2525 
Q 1475 2600 1162 2525 
Q 850 2450 650 2175 
L 225 2225 
Q 275 2375 700 4375 
L 2675 4375 
L 2675 3925 
L 1075 3925 
Q 950 3250 825 2850 
Q 1200 3025 1525 3012 
Q 1850 3000 2150 2862 
Q 2450 2725 2587 2487 
Q 2725 2250 2787 2012 
Q 2850 1775 2837 1500 
Q 2825 1225 2725 937 
Q 2625 650 2425 462 
Q 2225 275 1937 162 
Q 1650 50 1275 75 
Q 900 100 562 350 
Q 225 600 100 1200 
L 550 1325 
z
" id="SimHei%2BMSMincho%2BWFMSansClassic-Regular-35" transform="scale(0.015625)"/>
       <path d="M 225 2537 
Q 250 3200 412 3587 
Q 575 3975 875 4225 
Q 1175 4475 1612 4475 
Q 2050 4475 2375 4112 
Q 2700 3750 2800 3200 
Q 2900 2650 2862 1937 
Q 2825 1225 2612 775 
Q 2400 325 1975 150 
Q 1550 -25 1125 187 
Q 700 400 525 750 
Q 350 1100 275 1487 
Q 200 1875 225 2537 
z
M 750 2687 
Q 675 2000 800 1462 
Q 925 925 1212 700 
Q 1500 475 1800 612 
Q 2100 750 2237 1162 
Q 2375 1575 2375 2062 
Q 2375 2550 2337 2950 
Q 2300 3350 2112 3675 
Q 1925 4000 1612 4012 
Q 1300 4025 1062 3700 
Q 825 3375 750 2687 
z
" id="SimHei%2BMSMincho%2BWFMSansClassic-Regular-30" transform="scale(0.015625)"/>
      </defs>
      <use xlink:href="#SimHei%2BMSMincho%2BWFMSansClassic-Regular-2212"/>
      <use x="50" xlink:href="#SimHei%2BMSMincho%2BWFMSansClassic-Regular-31"/>
      <use x="100" xlink:href="#SimHei%2BMSMincho%2BWFMSansClassic-Regular-35"/>
      <use x="150" xlink:href="#SimHei%2BMSMincho%2BWFMSansClassic-Regular-30"/>
     </g>
    </g>
   </g>
   <g id="xtick_2">
    <g id="line2d_3">
     <path d="M 239.326033 866.793783 
L 230.141461 874.881508 
" style="fill:none;stroke:#000000;stroke-linecap:square;stroke-width:0.8;"/>
    </g>
    <g id="text_3">
     <!-- −100 -->
     <g transform="translate(218.79055 892.225037)scale(0.1 -0.1)">
      <use xlink:href="#SimHei%2BMSMincho%2BWFMSansClassic-Regular-2212"/>
      <use x="50" xlink:href="#SimHei%2BMSMincho%2BWFMSansClassic-Regular-31"/>
      <use x="100" xlink:href="#SimHei%2BMSMincho%2BWFMSansClassic-Regular-30"/>
      <use x="150" xlink:href="#SimHei%2BMSMincho%2BWFMSansClassic-Regular-30"/>
     </g>
    </g>
   </g>
   <g id="xtick_3">
    <g id="line2d_4">
     <path d="M 323.38933 894.221725 
L 314.320665 902.428934 
" style="fill:none;stroke:#000000;stroke-linecap:square;stroke-width:0.8;"/>
    </g>
    <g id="text_4">
     <!-- −50 -->
     <g transform="translate(305.415056 919.834907)scale(0.1 -0.1)">
      <use xlink:href="#SimHei%2BMSMincho%2BWFMSansClassic-Regular-2212"/>
      <use x="50" xlink:href="#SimHei%2BMSMincho%2BWFMSansClassic-Regular-35"/>
      <use x="100" xlink:href="#SimHei%2BMSMincho%2BWFMSansClassic-Regular-30"/>
     </g>
    </g>
   </g>
   <g id="xtick_4">
    <g id="line2d_5">
     <path d="M 408.697797 922.055937 
L 399.749497 930.385298 
" style="fill:none;stroke:#000000;stroke-linecap:square;stroke-width:0.8;"/>
    </g>
    <g id="text_5">
     <!-- 0 -->
     <g transform="translate(395.78771 947.854423)scale(0.1 -0.1)">
      <use xlink:href="#SimHei%2BMSMincho%2BWFMSansClassic-Regular-30"/>
     </g>
    </g>
   </g>
   <g id="xtick_5">
    <g id="line2d_6">
     <path d="M 495.279305 950.305513 
L 486.455993 958.759775 
" style="fill:none;stroke:#000000;stroke-linecap:square;stroke-width:0.8;"/>
    </g>
    <g id="text_6">
     <!-- 50 -->
     <g transform="translate(479.936498 976.29277)scale(0.1 -0.1)">
      <use xlink:href="#SimHei%2BMSMincho%2BWFMSansClassic-Regular-35"/>
      <use x="50" xlink:href="#SimHei%2BMSMincho%2BWFMSansClassic-Regular-30"/>
     </g>
    </g>
   </g>
   <g id="xtick_6">
    <g id="line2d_7">
     <path d="M 583.162565 978.979822 
L 574.469032 987.561814 
" style="fill:none;stroke:#000000;stroke-linecap:square;stroke-width:0.8;"/>
    </g>
    <g id="text_7">
     <!-- 100 -->
     <g transform="translate(565.39025 1005.159408)scale(0.1 -0.1)">
      <use xlink:href="#SimHei%2BMSMincho%2BWFMSansClassic-Regular-31"/>
      <use x="50" xlink:href="#SimHei%2BMSMincho%2BWFMSansClassic-Regular-30"/>
      <use x="100" xlink:href="#SimHei%2BMSMincho%2BWFMSansClassic-Regular-30"/>
     </g>
    </g>
   </g>
   <g id="xtick_7">
    <g id="line2d_8">
     <path d="M 672.377157 1008.088513 
L 663.818368 1016.801153 
" style="fill:none;stroke:#000000;stroke-linecap:square;stroke-width:0.8;"/>
    </g>
    <g id="text_8">
     <!-- 150 -->
     <g transform="translate(654.678667 1034.464088)scale(0.1 -0.1)">
      <use xlink:href="#SimHei%2BMSMincho%2BWFMSansClassic-Regular-31"/>
      <use x="50" xlink:href="#SimHei%2BMSMincho%2BWFMSansClassic-Regular-35"/>
      <use x="100" xlink:href="#SimHei%2BMSMincho%2BWFMSansClassic-Regular-30"/>
     </g>
    </g>
   </g>
  </g>
  <g id="axis3d_2">
   <g id="line2d_9">
    <path d="M 1017.233401 685.639548 
L 692.799394 1018.58865 
" style="fill:none;stroke:#000000;stroke-linecap:square;stroke-width:0.8;"/>
   </g>
   <g id="text_9">
    <!-- Y -->
    <g transform="translate(886.727088 875.454767)scale(0.1 -0.1)">
     <defs>
      <path d="M 3025 4400 
L 1850 2050 
L 1850 125 
L 1275 125 
L 1275 2050 
L 100 4400 
L 675 4400 
L 1550 2575 
L 1575 2575 
L 2450 4400 
L 3025 4400 
z
" id="SimHei%2BMSMincho%2BWFMSansClassic-Regular-59" transform="scale(0.015625)"/>
     </defs>
     <use xlink:href="#SimHei%2BMSMincho%2BWFMSansClassic-Regular-59"/>
    </g>
   </g>
   <g id="Line3DCollection_2">
    <path d="M 87.950459 338.254374 
L 108.74864 796.786442 
L 716.986939 993.76628 
" style="fill:none;stroke:#b0b0b0;stroke-width:0.8;"/>
    <path d="M 133.519527 305.000144 
L 152.11616 760.434926 
L 756.302242 953.419107 
" style="fill:none;stroke:#b0b0b0;stroke-width:0.8;"/>
    <path d="M 178.151898 272.429472 
L 194.630881 724.798244 
L 794.803692 913.907148 
" style="fill:none;stroke:#b0b0b0;stroke-width:0.8;"/>
    <path d="M 221.87616 240.521498 
L 236.317713 689.855515 
L 832.516301 875.204733 
" style="fill:none;stroke:#b0b0b0;stroke-width:0.8;"/>
    <path d="M 264.719747 209.256199 
L 277.200604 655.586665 
L 869.464067 837.287236 
" style="fill:none;stroke:#b0b0b0;stroke-width:0.8;"/>
    <path d="M 306.709004 178.614352 
L 317.302589 621.972386 
L 905.670023 800.131018 
" style="fill:none;stroke:#b0b0b0;stroke-width:0.8;"/>
    <path d="M 347.86923 148.577494 
L 356.64583 588.994101 
L 941.156289 763.71338 
" style="fill:none;stroke:#b0b0b0;stroke-width:0.8;"/>
    <path d="M 388.224739 119.127882 
L 395.25166 556.633929 
L 975.944111 728.012517 
" style="fill:none;stroke:#b0b0b0;stroke-width:0.8;"/>
    <path d="M 427.798901 90.248461 
L 433.140616 524.874655 
L 1010.053908 693.007474 
" style="fill:none;stroke:#b0b0b0;stroke-width:0.8;"/>
   </g>
   <g id="xtick_8">
    <g id="line2d_10">
     <path d="M 711.861416 992.106364 
L 727.251233 997.090403 
" style="fill:none;stroke:#000000;stroke-linecap:square;stroke-width:0.8;"/>
    </g>
    <g id="text_10">
     <!-- −125 -->
     <g transform="translate(719.85605 1014.052038)scale(0.1 -0.1)">
      <defs>
       <path d="M 300 250 
Q 325 625 650 925 
Q 975 1225 1475 1862 
Q 1975 2500 2125 2850 
Q 2275 3200 2237 3450 
Q 2200 3700 2000 3862 
Q 1800 4025 1537 4000 
Q 1275 3975 1037 3800 
Q 800 3625 675 3275 
L 200 3350 
Q 400 3925 712 4187 
Q 1025 4450 1450 4475 
Q 1700 4500 1900 4462 
Q 2100 4425 2312 4287 
Q 2525 4150 2662 3875 
Q 2800 3600 2762 3212 
Q 2725 2825 2375 2287 
Q 2025 1750 1025 600 
L 2825 600 
L 2825 150 
L 300 150 
L 300 250 
z
" id="SimHei%2BMSMincho%2BWFMSansClassic-Regular-32" transform="scale(0.015625)"/>
      </defs>
      <use xlink:href="#SimHei%2BMSMincho%2BWFMSansClassic-Regular-2212"/>
      <use x="50" xlink:href="#SimHei%2BMSMincho%2BWFMSansClassic-Regular-31"/>
      <use x="100" xlink:href="#SimHei%2BMSMincho%2BWFMSansClassic-Regular-32"/>
      <use x="150" xlink:href="#SimHei%2BMSMincho%2BWFMSansClassic-Regular-35"/>
     </g>
    </g>
   </g>
   <g id="xtick_9">
    <g id="line2d_11">
     <path d="M 751.213563 951.793723 
L 766.492616 956.674033 
" style="fill:none;stroke:#000000;stroke-linecap:square;stroke-width:0.8;"/>
    </g>
    <g id="text_11">
     <!-- −100 -->
     <g transform="translate(759.042438 973.558741)scale(0.1 -0.1)">
      <use xlink:href="#SimHei%2BMSMincho%2BWFMSansClassic-Regular-2212"/>
      <use x="50" xlink:href="#SimHei%2BMSMincho%2BWFMSansClassic-Regular-31"/>
      <use x="100" xlink:href="#SimHei%2BMSMincho%2BWFMSansClassic-Regular-30"/>
      <use x="150" xlink:href="#SimHei%2BMSMincho%2BWFMSansClassic-Regular-30"/>
     </g>
    </g>
   </g>
   <g id="xtick_10">
    <g id="line2d_12">
     <path d="M 789.751437 912.315229 
L 804.920991 917.095015 
" style="fill:none;stroke:#000000;stroke-linecap:square;stroke-width:0.8;"/>
    </g>
    <g id="text_12">
     <!-- −75 -->
     <g transform="translate(799.917525 933.903803)scale(0.1 -0.1)">
      <defs>
       <path d="M 850 150 
Q 1300 2050 2425 3925 
L 275 3925 
L 275 4375 
L 2950 4375 
L 2950 3950 
Q 1775 2050 1400 150 
L 850 150 
z
" id="SimHei%2BMSMincho%2BWFMSansClassic-Regular-37" transform="scale(0.015625)"/>
      </defs>
      <use xlink:href="#SimHei%2BMSMincho%2BWFMSansClassic-Regular-2212"/>
      <use x="50" xlink:href="#SimHei%2BMSMincho%2BWFMSansClassic-Regular-37"/>
      <use x="100" xlink:href="#SimHei%2BMSMincho%2BWFMSansClassic-Regular-35"/>
     </g>
    </g>
   </g>
   <g id="xtick_11">
    <g id="line2d_13">
     <path d="M 827.500053 873.645257 
L 842.561365 878.327593 
" style="fill:none;stroke:#000000;stroke-linecap:square;stroke-width:0.8;"/>
    </g>
    <g id="text_13">
     <!-- −50 -->
     <g transform="translate(837.506248 895.061454)scale(0.1 -0.1)">
      <use xlink:href="#SimHei%2BMSMincho%2BWFMSansClassic-Regular-2212"/>
      <use x="50" xlink:href="#SimHei%2BMSMincho%2BWFMSansClassic-Regular-35"/>
      <use x="100" xlink:href="#SimHei%2BMSMincho%2BWFMSansClassic-Regular-30"/>
     </g>
    </g>
   </g>
   <g id="xtick_12">
    <g id="line2d_14">
     <path d="M 864.483412 835.75922 
L 879.43773 840.347057 
" style="fill:none;stroke:#000000;stroke-linecap:square;stroke-width:0.8;"/>
    </g>
    <g id="text_14">
     <!-- −25 -->
     <g transform="translate(874.332534 857.006972)scale(0.1 -0.1)">
      <use xlink:href="#SimHei%2BMSMincho%2BWFMSansClassic-Regular-2212"/>
      <use x="50" xlink:href="#SimHei%2BMSMincho%2BWFMSansClassic-Regular-32"/>
      <use x="100" xlink:href="#SimHei%2BMSMincho%2BWFMSansClassic-Regular-35"/>
     </g>
    </g>
   </g>
   <g id="xtick_13">
    <g id="line2d_15">
     <path d="M 900.72455 798.63352 
L 915.573113 803.12969 
" style="fill:none;stroke:#000000;stroke-linecap:square;stroke-width:0.8;"/>
    </g>
    <g id="text_15">
     <!-- 0 -->
     <g transform="translate(915.419346 819.716625)scale(0.1 -0.1)">
      <use xlink:href="#SimHei%2BMSMincho%2BWFMSansClassic-Regular-30"/>
     </g>
    </g>
   </g>
   <g id="xtick_14">
    <g id="line2d_16">
     <path d="M 936.245589 762.245495 
L 950.989625 766.652717 
" style="fill:none;stroke:#000000;stroke-linecap:square;stroke-width:0.8;"/>
    </g>
    <g id="text_16">
     <!-- 25 -->
     <g transform="translate(948.288736 783.167626)scale(0.1 -0.1)">
      <use xlink:href="#SimHei%2BMSMincho%2BWFMSansClassic-Regular-32"/>
      <use x="50" xlink:href="#SimHei%2BMSMincho%2BWFMSansClassic-Regular-35"/>
     </g>
    </g>
   </g>
   <g id="xtick_15">
    <g id="line2d_17">
     <path d="M 971.06778 726.573375 
L 985.708508 730.894264 
" style="fill:none;stroke:#000000;stroke-linecap:square;stroke-width:0.8;"/>
    </g>
    <g id="text_17">
     <!-- 50 -->
     <g transform="translate(982.961889 747.338086)scale(0.1 -0.1)">
      <use xlink:href="#SimHei%2BMSMincho%2BWFMSansClassic-Regular-35"/>
      <use x="50" xlink:href="#SimHei%2BMSMincho%2BWFMSansClassic-Regular-30"/>
     </g>
    </g>
   </g>
   <g id="xtick_16">
    <g id="line2d_18">
     <path d="M 1005.211546 691.596239 
L 1019.750172 695.833306 
" style="fill:none;stroke:#000000;stroke-linecap:square;stroke-width:0.8;"/>
    </g>
    <g id="text_18">
     <!-- 75 -->
     <g transform="translate(1016.959161 712.206968)scale(0.1 -0.1)">
      <use xlink:href="#SimHei%2BMSMincho%2BWFMSansClassic-Regular-37"/>
      <use x="50" xlink:href="#SimHei%2BMSMincho%2BWFMSansClassic-Regular-35"/>
     </g>
    </g>
   </g>
  </g>
  <g id="axis3d_3">
   <g id="line2d_19">
    <path d="M 1017.233401 685.639548 
L 1037.792855 236.673588 
" style="fill:none;stroke:#000000;stroke-linecap:square;stroke-width:0.8;"/>
   </g>
   <g id="text_19">
    <!-- Z -->
    <g transform="translate(1065.367104 463.450475)scale(0.1 -0.1)">
     <defs>
      <path d="M 2900 125 
L 225 125 
L 225 600 
L 2250 3925 
L 375 3925 
L 375 4400 
L 2825 4400 
L 2825 3925 
L 800 600 
L 2900 600 
L 2900 125 
z
" id="SimHei%2BMSMincho%2BWFMSansClassic-Regular-5a" transform="scale(0.015625)"/>
     </defs>
     <use xlink:href="#SimHei%2BMSMincho%2BWFMSansClassic-Regular-5a"/>
    </g>
   </g>
   <g id="Line3DCollection_3">
    <path d="M 1019.338493 639.66971 
L 440.60806 473.66268 
L 79.824306 772.059922 
" style="fill:none;stroke:#b0b0b0;stroke-width:0.8;"/>
    <path d="M 1021.551379 591.345933 
L 440.070098 426.880108 
L 77.440597 722.560662 
" style="fill:none;stroke:#b0b0b0;stroke-width:0.8;"/>
    <path d="M 1023.78561 542.556039 
L 439.527194 379.667862 
L 75.033018 672.565725 
" style="fill:none;stroke:#b0b0b0;stroke-width:0.8;"/>
    <path d="M 1026.041496 493.293251 
L 438.979282 332.019995 
L 72.601209 622.067629 
" style="fill:none;stroke:#b0b0b0;stroke-width:0.8;"/>
    <path d="M 1028.319354 443.550662 
L 438.426291 283.930451 
L 70.144801 571.058738 
" style="fill:none;stroke:#b0b0b0;stroke-width:0.8;"/>
    <path d="M 1030.619505 393.321227 
L 437.868149 235.393059 
L 67.663421 519.531265 
" style="fill:none;stroke:#b0b0b0;stroke-width:0.8;"/>
    <path d="M 1032.94228 342.597763 
L 437.304786 186.401535 
L 65.156684 467.47726 
" style="fill:none;stroke:#b0b0b0;stroke-width:0.8;"/>
    <path d="M 1035.288013 291.372946 
L 436.736127 136.949473 
L 62.624201 414.88861 
" style="fill:none;stroke:#b0b0b0;stroke-width:0.8;"/>
   </g>
   <g id="xtick_17">
    <g id="line2d_20">
     <path d="M 1014.480308 638.276155 
L 1029.06647 642.46015 
" style="fill:none;stroke:#000000;stroke-linecap:square;stroke-width:0.8;"/>
    </g>
    <g id="text_20">
     <!-- −80 -->
     <g transform="translate(1030.210823 643.955801)scale(0.1 -0.1)">
      <defs>
       <path d="M 175 1375 
Q 175 1675 325 1962 
Q 475 2250 825 2425 
Q 525 2600 425 2812 
Q 325 3025 312 3300 
Q 300 3575 387 3775 
Q 475 3975 650 4150 
Q 825 4325 1037 4387 
Q 1250 4450 1500 4450 
Q 1750 4450 1950 4400 
Q 2150 4350 2375 4187 
Q 2600 4025 2700 3725 
Q 2800 3425 2687 3025 
Q 2575 2625 2100 2400 
Q 2525 2275 2700 2012 
Q 2875 1750 2875 1375 
Q 2875 1000 2762 775 
Q 2650 550 2512 400 
Q 2375 250 2137 162 
Q 1900 75 1537 75 
Q 1175 75 912 162 
Q 650 250 475 425 
Q 300 600 237 837 
Q 175 1075 175 1375 
z
M 687 1400 
Q 675 1100 787 875 
Q 900 650 1200 587 
Q 1500 525 1825 600 
Q 2150 675 2275 950 
Q 2400 1225 2362 1500 
Q 2325 1775 2050 1962 
Q 1775 2150 1450 2125 
Q 1125 2100 912 1900 
Q 700 1700 687 1400 
z
M 775 3350 
Q 775 3100 950 2875 
Q 1125 2650 1500 2650 
Q 1875 2650 2062 2875 
Q 2250 3100 2237 3412 
Q 2225 3725 2012 3875 
Q 1800 4025 1437 4000 
Q 1075 3975 925 3787 
Q 775 3600 775 3350 
z
" id="SimHei%2BMSMincho%2BWFMSansClassic-Regular-38" transform="scale(0.015625)"/>
      </defs>
      <use xlink:href="#SimHei%2BMSMincho%2BWFMSansClassic-Regular-2212"/>
      <use x="50" xlink:href="#SimHei%2BMSMincho%2BWFMSansClassic-Regular-38"/>
      <use x="100" xlink:href="#SimHei%2BMSMincho%2BWFMSansClassic-Regular-30"/>
     </g>
    </g>
   </g>
   <g id="xtick_18">
    <g id="line2d_21">
     <path d="M 1016.669001 589.965004 
L 1031.327855 594.111106 
" style="fill:none;stroke:#000000;stroke-linecap:square;stroke-width:0.8;"/>
    </g>
    <g id="text_21">
     <!-- −60 -->
     <g transform="translate(1032.510183 595.655485)scale(0.1 -0.1)">
      <defs>
       <path d="M 250 1612 
Q 275 1975 387 2225 
Q 500 2475 725 2850 
L 1750 4450 
L 2325 4450 
L 1275 2800 
Q 1950 2975 2350 2750 
Q 2750 2525 2887 2237 
Q 3025 1950 3037 1612 
Q 3050 1275 2937 950 
Q 2825 625 2537 362 
Q 2250 100 1737 75 
Q 1225 50 862 262 
Q 500 475 362 862 
Q 225 1250 250 1612 
z
M 1025 787 
Q 1250 550 1625 525 
Q 2000 500 2250 775 
Q 2500 1050 2500 1575 
Q 2500 2100 2187 2300 
Q 1875 2500 1487 2450 
Q 1100 2400 925 2075 
Q 750 1750 775 1387 
Q 800 1025 1025 787 
z
" id="SimHei%2BMSMincho%2BWFMSansClassic-Regular-36" transform="scale(0.015625)"/>
      </defs>
      <use xlink:href="#SimHei%2BMSMincho%2BWFMSansClassic-Regular-2212"/>
      <use x="50" xlink:href="#SimHei%2BMSMincho%2BWFMSansClassic-Regular-36"/>
      <use x="100" xlink:href="#SimHei%2BMSMincho%2BWFMSansClassic-Regular-30"/>
     </g>
    </g>
   </g>
   <g id="xtick_19">
    <g id="line2d_22">
     <path d="M 1018.878798 541.188045 
L 1033.611071 545.295326 
" style="fill:none;stroke:#000000;stroke-linecap:square;stroke-width:0.8;"/>
    </g>
    <g id="text_22">
     <!-- −40 -->
     <g transform="translate(1034.831704 546.889626)scale(0.1 -0.1)">
      <defs>
       <path d="M 2000 1100 
L 75 1100 
L 75 1525 
L 2100 4450 
L 2475 4450 
L 2475 1525 
L 3075 1525 
L 3075 1100 
L 2475 1100 
L 2475 150 
L 2000 150 
L 2000 1100 
z
M 2000 1525 
L 2000 3500 
L 600 1525 
L 2000 1525 
z
" id="SimHei%2BMSMincho%2BWFMSansClassic-Regular-34" transform="scale(0.015625)"/>
      </defs>
      <use xlink:href="#SimHei%2BMSMincho%2BWFMSansClassic-Regular-2212"/>
      <use x="50" xlink:href="#SimHei%2BMSMincho%2BWFMSansClassic-Regular-34"/>
      <use x="100" xlink:href="#SimHei%2BMSMincho%2BWFMSansClassic-Regular-30"/>
     </g>
    </g>
   </g>
   <g id="xtick_20">
    <g id="line2d_23">
     <path d="M 1021.110004 491.938509 
L 1035.916435 496.006019 
" style="fill:none;stroke:#000000;stroke-linecap:square;stroke-width:0.8;"/>
    </g>
    <g id="text_23">
     <!-- −20 -->
     <g transform="translate(1037.175711 497.651461)scale(0.1 -0.1)">
      <use xlink:href="#SimHei%2BMSMincho%2BWFMSansClassic-Regular-2212"/>
      <use x="50" xlink:href="#SimHei%2BMSMincho%2BWFMSansClassic-Regular-32"/>
      <use x="100" xlink:href="#SimHei%2BMSMincho%2BWFMSansClassic-Regular-30"/>
     </g>
    </g>
   </g>
   <g id="xtick_21">
    <g id="line2d_24">
     <path d="M 1023.362932 442.209495 
L 1038.24427 446.236263 
" style="fill:none;stroke:#000000;stroke-linecap:square;stroke-width:0.8;"/>
    </g>
    <g id="text_24">
     <!-- 0 -->
     <g transform="translate(1044.542529 447.934095)scale(0.1 -0.1)">
      <use xlink:href="#SimHei%2BMSMincho%2BWFMSansClassic-Regular-30"/>
     </g>
    </g>
   </g>
   <g id="xtick_22">
    <g id="line2d_25">
     <path d="M 1025.637901 391.993966 
L 1040.594907 395.978997 
" style="fill:none;stroke:#000000;stroke-linecap:square;stroke-width:0.8;"/>
    </g>
    <g id="text_25">
     <!-- 20 -->
     <g transform="translate(1044.432495 397.730498)scale(0.1 -0.1)">
      <use xlink:href="#SimHei%2BMSMincho%2BWFMSansClassic-Regular-32"/>
      <use x="50" xlink:href="#SimHei%2BMSMincho%2BWFMSansClassic-Regular-30"/>
     </g>
    </g>
   </g>
   <g id="xtick_23">
    <g id="line2d_26">
     <path d="M 1027.935237 341.284747 
L 1042.968683 345.227024 
" style="fill:none;stroke:#000000;stroke-linecap:square;stroke-width:0.8;"/>
    </g>
    <g id="text_26">
     <!-- 40 -->
     <g transform="translate(1046.84595 347.033503)scale(0.1 -0.1)">
      <use xlink:href="#SimHei%2BMSMincho%2BWFMSansClassic-Regular-34"/>
      <use x="50" xlink:href="#SimHei%2BMSMincho%2BWFMSansClassic-Regular-30"/>
     </g>
    </g>
   </g>
   <g id="xtick_24">
    <g id="line2d_27">
     <path d="M 1030.25527 290.074522 
L 1045.365941 293.973002 
" style="fill:none;stroke:#000000;stroke-linecap:square;stroke-width:0.8;"/>
    </g>
    <g id="text_27">
     <!-- 60 -->
     <g transform="translate(1049.28324 295.835799)scale(0.1 -0.1)">
      <use xlink:href="#SimHei%2BMSMincho%2BWFMSansClassic-Regular-36"/>
      <use x="50" xlink:href="#SimHei%2BMSMincho%2BWFMSansClassic-Regular-30"/>
     </g>
    </g>
   </g>
  </g>
  <g id="axes_1">
   <g id="Path3DCollection_1">
    <defs>
     <path d="M 0 11.18034 
C 2.965061 11.18034 5.80908 10.002309 7.905694 7.905694 
C 10.002309 5.80908 11.18034 2.965061 11.18034 0 
C 11.18034 -2.965061 10.002309 -5.80908 7.905694 -7.905694 
C 5.80908 -10.002309 2.965061 -11.18034 0 -11.18034 
C -2.965061 -11.18034 -5.80908 -10.002309 -7.905694 -7.905694 
C -10.002309 -5.80908 -11.18034 -2.965061 -11.18034 0 
C -11.18034 2.965061 -10.002309 5.80908 -7.905694 7.905694 
C -5.80908 10.002309 -2.965061 11.18034 0 11.18034 
z
" id="md33450d79f" style="stroke:#dac9a6;stroke-opacity:0.8;"/>
    </defs>
    <g clip-path="url(#p6872639884)">
     <use style="fill:#dac9a6;fill-opacity:0.8;stroke:#dac9a6;stroke-opacity:0.8;" x="788.376995" xlink:href="#md33450d79f" y="653.088531"/>
    </g>
   </g>
   <g id="text_28">
    <!-- ワクチンパスポト -->
    <g transform="translate(712.879342 798.342743)scale(0.35 -0.35)">
     <defs>
      <path d="M 1400 4125 
L 4950 4125 
Q 4975 3400 4800 2350 
Q 4600 975 2400 25 
L 2025 550 
Q 3000 875 3725 1500 
Q 4350 1975 4350 3575 
L 1950 3575 
L 1950 2300 
L 1400 2300 
L 1400 4125 
z
" id="SimHei%2BMSMincho%2BWFMSansClassic-Regular-30ef" transform="scale(0.015625)"/>
      <path d="M 2875 4950 
L 3400 4750 
Q 3200 4350 3000 3925 
L 4650 3925 
L 5025 3550 
Q 4575 925 1975 -175 
L 1625 325 
Q 2625 700 3400 1375 
Q 4175 2275 4375 3400 
L 2725 3400 
Q 2325 2675 1575 2000 
L 1225 2375 
Q 2325 3325 2875 4950 
z
" id="SimHei%2BMSMincho%2BWFMSansClassic-Regular-30af" transform="scale(0.015625)"/>
      <path d="M 4675 4600 
L 4825 4050 
L 3625 3800 
L 3600 2800 
L 5450 2800 
L 5450 2275 
L 3600 2275 
Q 3675 775 1825 -25 
L 1750 -50 
L 1425 450 
Q 2700 750 3000 1825 
L 3075 2275 
L 1150 2275 
L 1150 2800 
L 3075 2800 
L 3075 3725 
L 1800 3625 
L 1725 3625 
L 1575 4175 
Q 2425 4125 3950 4400 
L 4675 4600 
z
" id="SimHei%2BMSMincho%2BWFMSansClassic-Regular-30c1" transform="scale(0.015625)"/>
      <path d="M 1500 4325 
Q 2050 4075 2575 3675 
L 2625 3625 
L 2325 3150 
Q 1950 3475 1400 3775 
L 1200 3850 
L 1500 4325 
z
M 4700 3800 
L 5150 3450 
Q 4850 2775 4350 2075 
Q 3550 975 1425 400 
L 1225 950 
Q 2475 1200 3450 1925 
Q 4075 2450 4700 3800 
z
" id="SimHei%2BMSMincho%2BWFMSansClassic-Regular-30f3" transform="scale(0.015625)"/>
      <path d="M 5175 4850 
Q 5750 4775 5800 4350 
L 5825 4100 
Q 5650 3575 5200 3575 
L 5100 3575 
Q 4600 3750 4575 4175 
L 4575 4250 
Q 4650 4750 5050 4825 
L 5175 4850 
z
M 5175 4575 
Q 4850 4500 4850 4225 
Q 4825 3975 5125 3850 
L 5275 3850 
Q 5500 3925 5550 4125 
L 5550 4300 
Q 5450 4575 5175 4575 
z
M 2025 3900 
L 2575 3675 
Q 2350 2750 1900 1875 
Q 1650 1375 1025 775 
L 550 1125 
Q 1700 2075 2025 3900 
z
M 3950 3875 
Q 5075 2600 5650 975 
L 5125 725 
Q 4750 1900 3700 3325 
L 3475 3575 
L 3950 3875 
z
" id="SimHei%2BMSMincho%2BWFMSansClassic-Regular-30d1" transform="scale(0.015625)"/>
      <path d="M 1525 4075 
L 4350 4050 
L 4700 3750 
Q 4400 3050 3800 2200 
L 3750 2150 
Q 4100 1925 5300 600 
L 5375 450 
L 4950 25 
Q 4325 975 3425 1750 
Q 2900 1125 1900 350 
L 1475 125 
L 1125 625 
Q 2825 1450 3850 3350 
L 3950 3525 
L 1525 3525 
L 1525 4075 
z
" id="SimHei%2BMSMincho%2BWFMSansClassic-Regular-30b9" transform="scale(0.015625)"/>
      <path d="M 5125 5150 
Q 5675 5075 5725 4550 
Q 5675 4000 5175 3925 
Q 4500 3950 4475 4550 
Q 4550 5100 5125 5150 
z
M 5100 4925 
Q 4750 4875 4725 4525 
Q 4750 4200 5125 4150 
Q 5475 4200 5475 4575 
Q 5450 4875 5100 4925 
z
M 2800 4575 
L 3325 4575 
L 3325 3550 
L 5175 3550 
L 5175 3025 
L 3325 3025 
L 3325 700 
Q 3325 300 3150 112 
Q 2975 -75 2612 -62 
Q 2250 -50 1950 25 
L 2075 625 
Q 2800 300 2800 700 
L 2800 3025 
L 975 3025 
L 975 3550 
L 2800 3550 
L 2800 4575 
z
M 1725 2525 
L 2200 2200 
Q 1650 1350 1050 450 
L 625 800 
Q 1150 1450 1725 2525 
z
M 4450 2500 
Q 5075 1750 5650 775 
L 5125 425 
Q 4600 1475 4025 2175 
L 4450 2500 
z
" id="SimHei%2BMSMincho%2BWFMSansClassic-Regular-30dd" transform="scale(0.015625)"/>
      <path d="M 2525 4675 
L 3075 4675 
L 3075 2850 
L 3250 3100 
Q 4200 2725 5000 2100 
L 5100 2025 
L 4675 1550 
Q 3925 2175 3075 2575 
L 3075 -75 
L 2525 -75 
L 2525 4675 
z
" id="SimHei%2BMSMincho%2BWFMSansClassic-Regular-30c8" transform="scale(0.015625)"/>
     </defs>
     <use xlink:href="#SimHei%2BMSMincho%2BWFMSansClassic-Regular-30ef"/>
     <use x="100" xlink:href="#SimHei%2BMSMincho%2BWFMSansClassic-Regular-30af"/>
     <use x="200" xlink:href="#SimHei%2BMSMincho%2BWFMSansClassic-Regular-30c1"/>
     <use x="300" xlink:href="#SimHei%2BMSMincho%2BWFMSansClassic-Regular-30f3"/>
     <use x="400" xlink:href="#SimHei%2BMSMincho%2BWFMSansClassic-Regular-30d1"/>
     <use x="500" xlink:href="#SimHei%2BMSMincho%2BWFMSansClassic-Regular-30b9"/>
     <use x="600" xlink:href="#SimHei%2BMSMincho%2BWFMSansClassic-Regular-30dd"/>
     <use x="700" xlink:href="#SimHei%2BMSMincho%2BWFMSansClassic-Regular-30c8"/>
    </g>
   </g>
   <g id="text_29">
    <!-- 백신패스 -->
    <g transform="translate(679.581895 757.091502)scale(0.35 -0.35)">
     <defs>
      <path d="M 4550 -475 
L 4550 950 
L 1275 950 
L 1275 1475 
L 5200 1475 
L 5200 -475 
L 4550 -475 
z
M 4575 1800 
L 4575 3275 
L 3975 3275 
L 3975 1825 
L 3350 1825 
L 3350 5175 
L 3975 5175 
L 3975 3800 
L 4575 3800 
L 4575 5275 
L 5200 5275 
L 5200 1800 
L 4575 1800 
z
M 550 2175 
L 550 4900 
L 1175 4900 
L 1175 4050 
L 2200 4050 
L 2200 4900 
L 2800 4900 
L 2800 2175 
L 550 2175 
z
M 1175 2700 
L 2200 2700 
L 2200 3525 
L 1175 3525 
L 1175 2700 
z
" id="SimHei%2BMSMincho%2BWFMSansClassic-Regular-bc31" transform="scale(0.015625)"/>
      <path d="M 1300 -375 
L 1300 1450 
L 1975 1450 
L 1975 150 
L 5250 150 
L 5250 -375 
L 1300 -375 
z
M 4425 1050 
L 4425 5275 
L 5075 5275 
L 5075 1050 
L 4425 1050 
z
M 675 1850 
L 325 2375 
Q 1000 2625 1375 3200 
Q 1750 3725 1750 4375 
L 1750 4950 
L 2425 4950 
L 2425 4375 
Q 2425 3750 2775 3250 
Q 3150 2700 3825 2475 
L 3475 1950 
Q 2500 2325 2100 3275 
Q 1675 2225 675 1850 
z
" id="SimHei%2BMSMincho%2BWFMSansClassic-Regular-c2e0" transform="scale(0.015625)"/>
      <path d="M 4625 -475 
L 4625 2450 
L 4000 2450 
L 4000 -200 
L 3375 -200 
L 3375 5150 
L 4000 5150 
L 4000 3000 
L 4625 3000 
L 4625 5275 
L 5250 5275 
L 5250 -475 
L 4625 -475 
z
M 325 875 
L 250 1425 
Q 525 1425 800 1425 
L 800 4050 
L 375 4050 
L 375 4575 
L 3025 4575 
L 3025 4050 
L 2575 4050 
L 2575 1500 
Q 2925 1525 3100 1550 
L 3150 1075 
Q 2100 875 325 875 
z
M 1400 1425 
Q 1500 1425 1700 1437 
Q 1900 1450 1975 1450 
L 1975 4050 
L 1400 4050 
L 1400 1425 
z
" id="SimHei%2BMSMincho%2BWFMSansClassic-Regular-d328" transform="scale(0.015625)"/>
      <path d="M 325 225 
L 325 775 
L 5550 775 
L 5550 225 
L 325 225 
z
M 775 1900 
L 500 2450 
Q 1350 2600 1950 3187 
Q 2550 3775 2550 4475 
L 2550 4900 
L 3250 4900 
L 3250 4475 
Q 3250 3775 3862 3187 
Q 4475 2600 5325 2450 
L 5025 1900 
Q 4325 2050 3762 2475 
Q 3200 2900 2900 3500 
Q 2625 2900 2050 2475 
Q 1475 2050 775 1900 
z
" id="SimHei%2BMSMincho%2BWFMSansClassic-Regular-c2a4" transform="scale(0.015625)"/>
     </defs>
     <use xlink:href="#SimHei%2BMSMincho%2BWFMSansClassic-Regular-bc31"/>
     <use x="92.1875" xlink:href="#SimHei%2BMSMincho%2BWFMSansClassic-Regular-c2e0"/>
     <use x="184.375" xlink:href="#SimHei%2BMSMincho%2BWFMSansClassic-Regular-d328"/>
     <use x="276.5625" xlink:href="#SimHei%2BMSMincho%2BWFMSansClassic-Regular-c2a4"/>
    </g>
   </g>
   <g id="text_30">
    <!-- 健康码 -->
    <g transform="translate(788.376995 653.088531)scale(0.35 -0.35)">
     <defs>
      <path d="M 5625 4600 
Q 5600 4275 5600 3725 
Q 5825 3725 6075 3775 
L 6075 3325 
Q 5825 3350 5600 3350 
Q 5600 2875 5625 2500 
L 4575 2500 
L 4575 1950 
L 5250 1950 
Q 5550 1975 5750 1975 
L 5750 1525 
Q 5575 1575 5250 1575 
L 4575 1575 
L 4575 1100 
L 5350 1100 
Q 5625 1100 5850 1125 
L 5850 700 
Q 5650 725 5350 725 
L 4575 725 
L 4575 25 
Q 5225 -25 6100 100 
Q 5950 -150 5900 -425 
Q 4950 -450 4112 -400 
Q 3275 -350 2450 200 
Q 2225 -125 1850 -575 
Q 1650 -400 1450 -300 
Q 1875 75 2150 525 
Q 1825 975 1650 1750 
Q 1850 1800 2050 1875 
Q 2125 1375 2350 975 
Q 2575 1525 2600 2450 
Q 2100 2425 1950 2325 
Q 1875 2525 1750 2800 
Q 1975 2825 2137 3312 
Q 2300 3800 2400 4200 
Q 2100 4200 1800 4175 
L 1800 4600 
Q 2125 4575 2350 4575 
L 2975 4575 
Q 2850 4300 2425 2850 
L 3025 2850 
Q 2950 1400 2650 575 
Q 3225 75 4150 25 
L 4150 725 
Q 3700 725 3200 700 
L 3200 1125 
Q 3700 1100 4150 1100 
L 4150 1575 
Q 3775 1575 3275 1525 
L 3275 1975 
Q 3775 1950 4150 1950 
L 4150 2500 
Q 3725 2500 3300 2475 
L 3300 2900 
Q 3750 2875 4150 2875 
L 4150 3350 
L 3725 3350 
Q 3375 3350 3125 3325 
L 3125 3775 
Q 3400 3725 3750 3725 
L 4150 3725 
L 4150 4225 
Q 3750 4225 3325 4200 
L 3325 4625 
Q 3775 4600 4150 4600 
Q 4150 4900 4125 5225 
L 4600 5225 
Q 4575 4850 4575 4600 
L 5625 4600 
z
M 1700 4975 
Q 1525 4750 1375 4100 
L 1375 -525 
L 925 -525 
Q 975 -125 975 400 
L 975 3125 
Q 825 2775 600 2375 
Q 450 2525 225 2700 
Q 525 3100 825 3912 
Q 1125 4725 1150 5125 
Q 1350 5075 1700 4975 
z
M 5200 3725 
L 5200 4225 
L 4575 4225 
L 4575 3725 
L 5200 3725 
z
M 5200 2875 
L 5200 3350 
L 4575 3350 
L 4575 2875 
L 5200 2875 
z
" id="SimHei%2BMSMincho%2BWFMSansClassic-Regular-5065" transform="scale(0.015625)"/>
      <path d="M 3550 5275 
Q 3725 4850 3775 4625 
L 4850 4625 
Q 5375 4625 5800 4650 
L 5800 4250 
Q 5375 4275 4850 4275 
L 3750 4275 
L 3750 3750 
L 5375 3750 
Q 5350 3400 5350 2950 
Q 5600 2950 5975 2975 
L 5975 2550 
Q 5625 2575 5350 2575 
Q 5350 2150 5375 1800 
L 3925 1800 
Q 4175 1325 4525 975 
Q 4700 1050 5100 1650 
Q 5175 1575 5500 1325 
Q 5375 1225 4800 700 
Q 4975 550 5287 350 
Q 5600 150 6100 25 
Q 5875 -100 5700 -450 
Q 5000 -150 4487 362 
Q 3975 875 3750 1400 
L 3750 150 
Q 3775 -350 3450 -462 
Q 3125 -575 2700 -600 
Q 2675 -375 2550 -50 
Q 3025 -75 3137 -25 
Q 3250 25 3275 200 
L 3275 825 
Q 2275 50 1800 -325 
Q 1575 50 1475 125 
Q 1850 300 2287 587 
Q 2725 875 3275 1275 
L 3275 1800 
L 2600 1800 
Q 2275 1800 1875 1775 
L 1875 2175 
Q 2275 2150 2550 2150 
L 3275 2150 
L 3275 2575 
L 2400 2575 
Q 1900 2575 1600 2550 
L 1600 2975 
Q 1925 2950 2350 2950 
L 3275 2950 
L 3275 3375 
L 2650 3375 
Q 2300 3375 1900 3350 
L 1900 3775 
Q 2350 3750 2600 3750 
L 3275 3750 
L 3275 4275 
L 1525 4275 
Q 1525 2275 1462 1700 
Q 1400 1125 1212 575 
Q 1025 25 625 -475 
Q 500 -325 200 -100 
Q 525 250 737 737 
Q 950 1225 1012 2087 
Q 1075 2950 1000 4625 
L 3200 4625 
Q 3150 4800 3000 5150 
Q 3150 5175 3550 5275 
z
M 4850 2150 
L 4850 2575 
L 3750 2575 
L 3750 2150 
L 4850 2150 
z
M 4850 2950 
L 4850 3375 
L 3750 3375 
L 3750 2950 
L 4850 2950 
z
M 1925 1650 
Q 2300 1400 2700 1025 
Q 2600 975 2375 700 
Q 2225 875 1650 1300 
Q 1700 1350 1925 1650 
z
" id="SimHei%2BMSMincho%2BWFMSansClassic-Regular-5eb7" transform="scale(0.015625)"/>
      <path d="M 1975 4750 
Q 2325 4750 2725 4775 
L 2725 4350 
Q 2300 4375 2100 4375 
L 1725 4375 
Q 1625 3775 1400 3050 
L 2600 3050 
Q 2575 2625 2575 2300 
L 2575 1100 
Q 2575 775 2600 150 
L 2150 150 
L 2150 600 
L 1400 600 
L 1400 -125 
L 925 -125 
Q 950 500 950 875 
L 950 2050 
Q 775 1725 550 1325 
Q 400 1525 200 1675 
Q 650 2275 925 3062 
Q 1200 3850 1250 4375 
Q 800 4375 350 4350 
L 350 4775 
Q 800 4750 1125 4750 
L 1975 4750 
z
M 4725 2425 
L 4975 4500 
L 3825 4500 
Q 3400 4500 2950 4475 
L 2950 4925 
Q 3400 4875 3825 4875 
L 5500 4875 
Q 5375 4200 5175 2425 
L 5975 2425 
Q 5925 2150 5887 1500 
Q 5850 850 5750 300 
Q 5650 -250 5412 -412 
Q 5175 -575 4475 -625 
Q 4450 -350 4275 -75 
Q 4925 -100 5100 -25 
Q 5275 50 5350 712 
Q 5425 1375 5450 2025 
L 3125 2025 
Q 3200 2575 3262 3112 
Q 3325 3650 3350 4150 
L 3900 4050 
Q 3800 3800 3737 3362 
Q 3675 2925 3625 2425 
L 4725 2425 
z
M 2150 1000 
L 2150 2650 
L 1400 2650 
L 1400 1000 
L 2150 1000 
z
M 4325 1325 
Q 4625 1325 5275 1350 
L 5275 900 
Q 4600 925 4150 925 
L 3500 925 
Q 3225 925 2825 900 
L 2825 1350 
Q 3100 1325 3500 1325 
L 4325 1325 
z
" id="SimHei%2BMSMincho%2BWFMSansClassic-Regular-7801" transform="scale(0.015625)"/>
     </defs>
     <use xlink:href="#SimHei%2BMSMincho%2BWFMSansClassic-Regular-5065"/>
     <use x="100" xlink:href="#SimHei%2BMSMincho%2BWFMSansClassic-Regular-5eb7"/>
     <use x="200" xlink:href="#SimHei%2BMSMincho%2BWFMSansClassic-Regular-7801"/>
    </g>
   </g>
   <g id="text_31">
    <!-- 자택치료 -->
    <g transform="translate(554.147828 423.577897)scale(0.35 -0.35)">
     <defs>
      <path d="M 4125 -475 
L 4125 5275 
L 4800 5275 
L 4800 3000 
L 5700 3000 
L 5700 2450 
L 4800 2450 
L 4800 -475 
L 4125 -475 
z
M 575 600 
L 200 1125 
Q 850 1425 1275 2150 
Q 1675 2850 1675 3600 
L 1675 4150 
L 425 4150 
L 425 4700 
L 3550 4700 
L 3550 4150 
L 2325 4150 
L 2325 3600 
Q 2325 2900 2725 2250 
Q 3150 1575 3775 1250 
L 3425 750 
Q 2950 975 2575 1425 
Q 2225 1850 2025 2425 
Q 1825 1800 1450 1325 
Q 1075 850 575 600 
z
" id="SimHei%2BMSMincho%2BWFMSansClassic-Regular-c790" transform="scale(0.015625)"/>
      <path d="M 4550 -475 
L 4550 950 
L 1275 950 
L 1275 1475 
L 5200 1475 
L 5200 -475 
L 4550 -475 
z
M 4575 1750 
L 4575 3275 
L 3925 3275 
L 3925 1800 
L 3325 1800 
L 3325 5175 
L 3925 5175 
L 3925 3800 
L 4575 3800 
L 4575 5275 
L 5200 5275 
L 5200 1750 
L 4575 1750 
z
M 525 2025 
L 525 4875 
L 2775 4875 
L 2775 4325 
L 1175 4325 
L 1175 3725 
L 2725 3725 
L 2725 3225 
L 1175 3225 
L 1175 2575 
Q 2275 2575 2975 2700 
L 3025 2175 
Q 2550 2075 2075 2050 
Q 1650 2025 925 2025 
L 525 2025 
z
" id="SimHei%2BMSMincho%2BWFMSansClassic-Regular-d0dd" transform="scale(0.015625)"/>
      <path d="M 4400 -475 
L 4400 5275 
L 5075 5275 
L 5075 -475 
L 4400 -475 
z
M 750 600 
L 375 1100 
Q 1050 1400 1450 2050 
Q 1825 2700 1825 3425 
L 1825 3775 
L 550 3775 
L 550 4300 
L 1825 4300 
L 1825 5150 
L 2500 5150 
L 2500 4300 
L 3750 4300 
L 3750 3775 
L 2500 3775 
L 2500 3425 
Q 2500 2750 2900 2125 
Q 3300 1475 3950 1200 
L 3600 675 
Q 3125 900 2750 1325 
Q 2375 1750 2175 2300 
Q 1975 1700 1625 1275 
Q 1250 825 750 600 
z
" id="SimHei%2BMSMincho%2BWFMSansClassic-Regular-ce58" transform="scale(0.015625)"/>
      <path d="M 325 175 
L 325 725 
L 1725 725 
L 1725 1725 
L 950 1725 
L 950 3575 
L 4275 3575 
L 4275 4350 
L 925 4350 
L 925 4875 
L 4925 4875 
L 4925 3050 
L 1600 3050 
L 1600 2250 
L 5050 2250 
L 5050 1725 
L 4200 1725 
L 4200 725 
L 5550 725 
L 5550 175 
L 325 175 
z
M 2375 725 
L 3550 725 
L 3550 1725 
L 2375 1725 
L 2375 725 
z
" id="SimHei%2BMSMincho%2BWFMSansClassic-Regular-b8cc" transform="scale(0.015625)"/>
     </defs>
     <use xlink:href="#SimHei%2BMSMincho%2BWFMSansClassic-Regular-c790"/>
     <use x="92.1875" xlink:href="#SimHei%2BMSMincho%2BWFMSansClassic-Regular-d0dd"/>
     <use x="184.375" xlink:href="#SimHei%2BMSMincho%2BWFMSansClassic-Regular-ce58"/>
     <use x="276.5625" xlink:href="#SimHei%2BMSMincho%2BWFMSansClassic-Regular-b8cc"/>
    </g>
   </g>
   <g id="text_32">
    <!-- 自宅療養 -->
    <g transform="translate(802.800188 396.430206)scale(0.35 -0.35)">
     <defs>
      <path d="M 3200 5075 
Q 3050 4850 2900 4225 
L 5400 4225 
Q 5375 3650 5375 3175 
L 5375 375 
Q 5375 -75 5400 -525 
L 4900 -525 
L 4900 75 
L 1550 75 
L 1550 -525 
L 1050 -525 
Q 1075 -50 1075 350 
L 1075 3200 
Q 1075 3650 1050 4225 
L 2425 4225 
Q 2525 4900 2550 5225 
Q 2850 5125 3200 5075 
z
M 4900 475 
L 4900 1375 
L 1550 1375 
L 1550 475 
L 4900 475 
z
M 4900 2975 
L 4900 3800 
L 1550 3800 
L 1550 2975 
L 4900 2975 
z
M 4900 1775 
L 4900 2575 
L 1550 2575 
L 1550 1775 
L 4900 1775 
z
" id="SimHei%2BMSMincho%2BWFMSansClassic-Regular-81ea" transform="scale(0.015625)"/>
      <path d="M 450 1525 
Q 2075 1600 2725 1650 
L 2725 2550 
Q 1825 2425 1225 2375 
Q 1200 2550 1025 2875 
Q 1650 2875 2712 3025 
Q 3775 3175 4525 3475 
Q 4625 3175 4875 2950 
Q 4550 2900 4175 2837 
Q 3800 2775 3200 2650 
L 3200 1700 
Q 4850 1850 5650 1975 
L 5650 1475 
Q 5200 1425 4612 1375 
Q 4025 1325 3200 1250 
L 3200 350 
Q 3175 -100 3550 -100 
L 4675 -100 
Q 4900 -100 5050 -50 
Q 5200 0 5225 600 
Q 5525 425 5775 350 
Q 5650 -200 5462 -362 
Q 5275 -525 4950 -500 
L 3300 -500 
Q 2700 -525 2725 -25 
L 2725 1200 
Q 1325 1100 575 1050 
Q 525 1275 450 1525 
z
M 5675 4275 
Q 5650 3875 5650 3675 
Q 5650 3500 5675 3150 
L 5175 3150 
L 5175 3825 
L 1150 3825 
L 1150 3100 
L 600 3100 
Q 625 3475 625 3650 
Q 625 3850 600 4275 
L 5675 4275 
z
M 2600 5000 
Q 2775 5100 3050 5275 
Q 3350 4875 3525 4575 
Q 3150 4400 3025 4300 
Q 2950 4525 2600 5000 
z
" id="SimHei%2BMSMincho%2BWFMSansClassic-Regular-5b85" transform="scale(0.015625)"/>
      <path d="M 3525 3700 
Q 3600 3925 3650 4250 
Q 3925 4175 4225 4125 
Q 4150 4025 4112 3912 
Q 4075 3800 4025 3700 
L 5025 3700 
Q 5550 3700 5900 3725 
L 5900 3300 
Q 5575 3325 5025 3325 
L 4450 3325 
Q 4550 3025 4800 2775 
Q 4950 2850 5075 2975 
Q 5200 3100 5300 3225 
Q 5500 3075 5750 2900 
Q 5600 2875 5437 2775 
Q 5275 2675 5125 2525 
Q 5375 2350 5575 2300 
Q 5775 2250 6125 2200 
Q 5875 1875 5900 1675 
Q 5625 1775 5325 1925 
L 5325 1475 
Q 5325 1075 5350 800 
L 4200 800 
L 4200 -50 
Q 4200 -375 4037 -487 
Q 3875 -600 3400 -650 
Q 3375 -400 3225 -125 
Q 3500 -150 3637 -112 
Q 3775 -75 3775 75 
L 3775 800 
L 2500 800 
Q 2525 1100 2525 1400 
L 2525 1950 
Q 2300 1825 2075 1725 
Q 1975 1975 1825 2175 
Q 2125 2250 2312 2325 
Q 2500 2400 2700 2575 
Q 2500 2700 2275 2800 
Q 2425 3000 2525 3175 
Q 2775 3000 3025 2850 
Q 3250 3050 3375 3325 
L 3000 3325 
Q 2500 3325 2175 3300 
L 2175 3725 
Q 2525 3700 2975 3700 
L 3525 3700 
z
M 3975 5275 
Q 4025 5000 4075 4650 
L 5225 4650 
Q 5600 4650 6050 4675 
L 6050 4275 
Q 5600 4300 5225 4300 
L 1800 4300 
Q 1775 2275 1700 1687 
Q 1625 1100 1475 487 
Q 1325 -125 925 -675 
Q 725 -500 425 -350 
Q 800 25 1012 612 
Q 1225 1200 1300 2000 
Q 1100 1875 925 1762 
Q 750 1650 500 1500 
Q 400 1750 250 2000 
Q 500 2075 775 2212 
Q 1050 2350 1325 2575 
L 1325 3575 
Q 1325 4125 1300 4650 
L 3575 4650 
Q 3500 4925 3425 5175 
Q 3675 5200 3975 5275 
z
M 4550 2425 
Q 4200 2800 4000 3325 
L 3850 3325 
Q 3550 2750 3175 2425 
L 4550 2425 
z
M 4950 750 
Q 5175 550 5425 375 
Q 5675 200 5875 50 
Q 5700 -150 5550 -375 
Q 5275 -100 5037 50 
Q 4800 200 4600 325 
Q 4750 475 4950 750 
z
M 3250 400 
Q 2950 175 2787 12 
Q 2625 -150 2300 -425 
Q 2175 -200 1950 -50 
Q 2275 150 2462 337 
Q 2650 525 2775 750 
Q 3050 550 3250 400 
z
M 4900 1775 
L 4900 2050 
L 2950 2050 
L 2950 1775 
L 4900 1775 
z
M 4900 1175 
L 4900 1450 
L 2950 1450 
L 2950 1175 
L 4900 1175 
z
M 650 3825 
Q 1000 3475 1225 3200 
Q 1075 3100 875 2875 
Q 750 3100 325 3500 
Q 525 3675 650 3825 
z
" id="SimHei%2BMSMincho%2BWFMSansClassic-Regular-7642" transform="scale(0.015625)"/>
      <path d="M 2925 250 
Q 2925 50 2975 -175 
Q 2650 -250 2312 -350 
Q 1975 -450 1550 -600 
Q 1450 -375 1375 -225 
Q 1550 -150 1575 75 
L 1575 2125 
Q 1175 1975 525 1775 
Q 400 2025 275 2250 
Q 675 2300 1012 2400 
Q 1350 2500 1687 2637 
Q 2025 2775 2400 3050 
L 1700 3050 
Q 1100 3050 600 3025 
L 600 3375 
Q 1100 3350 1700 3350 
L 2675 3350 
Q 2825 3475 2850 3575 
L 1975 3575 
Q 1575 3575 1050 3550 
L 1050 3875 
Q 1575 3850 2000 3850 
L 2925 3850 
Q 2975 3975 3000 4100 
L 1700 4100 
Q 1250 4100 700 4075 
L 700 4425 
Q 1275 4400 1725 4400 
L 2225 4400 
Q 2050 4625 1825 4825 
Q 1975 4950 2125 5125 
Q 2325 4925 2675 4600 
L 2475 4400 
L 3725 4400 
Q 3975 4825 4075 5100 
Q 4300 5000 4600 4875 
Q 4325 4600 4175 4400 
L 4950 4400 
Q 5350 4400 5700 4425 
L 5700 4075 
Q 5400 4100 4975 4100 
L 3400 4100 
Q 3350 3950 3325 3850 
L 4525 3850 
Q 4925 3850 5250 3875 
L 5250 3550 
Q 4925 3575 4525 3575 
L 3250 3575 
Q 3200 3450 3125 3350 
L 5075 3350 
Q 5525 3350 5850 3375 
L 5850 3025 
Q 5550 3050 5100 3050 
L 4175 3050 
Q 4250 2975 4412 2875 
Q 4575 2775 4812 2700 
Q 5050 2625 5387 2575 
Q 5725 2525 6175 2525 
Q 6000 2275 5925 2000 
Q 5600 2075 5125 2200 
Q 4650 2325 4262 2575 
Q 3875 2825 3675 3050 
L 2950 3050 
Q 2650 2775 2412 2612 
Q 2175 2450 1725 2225 
L 4925 2225 
Q 4900 1875 4900 1475 
L 4900 700 
L 2050 700 
L 2050 -50 
Q 2250 25 2462 100 
Q 2675 175 2925 250 
z
M 5625 550 
Q 5400 475 4750 125 
Q 5000 50 5225 -37 
Q 5450 -125 5725 -275 
Q 5575 -400 5475 -625 
Q 4725 -250 4112 -25 
Q 3500 200 3075 325 
Q 3150 475 3250 625 
Q 3400 575 3712 475 
Q 4025 375 4325 275 
Q 4900 525 5325 875 
Q 5475 675 5625 550 
z
M 4450 1625 
L 4450 1925 
L 2050 1925 
L 2050 1625 
L 4450 1625 
z
M 4450 1025 
L 4450 1300 
L 2050 1300 
L 2050 1025 
L 4450 1025 
z
M 3650 2575 
Q 3475 2450 3325 2300 
Q 3150 2500 2950 2700 
Q 3100 2800 3225 2975 
Q 3550 2650 3650 2575 
z
" id="SimHei%2BMSMincho%2BWFMSansClassic-Regular-990a" transform="scale(0.015625)"/>
     </defs>
     <use xlink:href="#SimHei%2BMSMincho%2BWFMSansClassic-Regular-81ea"/>
     <use x="100" xlink:href="#SimHei%2BMSMincho%2BWFMSansClassic-Regular-5b85"/>
     <use x="200" xlink:href="#SimHei%2BMSMincho%2BWFMSansClassic-Regular-7642"/>
     <use x="300" xlink:href="#SimHei%2BMSMincho%2BWFMSansClassic-Regular-990a"/>
    </g>
   </g>
   <g id="text_33">
    <!-- 伸手党 -->
    <g transform="translate(602.821336 718.258793)scale(0.35 -0.35)">
     <defs>
      <path d="M 3875 4200 
Q 3875 4575 3850 5150 
L 4350 5150 
Q 4325 4575 4325 4200 
L 5900 4200 
Q 5875 3600 5875 3050 
L 5875 1825 
Q 5875 1350 5900 775 
L 5400 775 
L 5400 1250 
L 4325 1250 
Q 4325 -25 4350 -575 
L 3850 -575 
Q 3875 0 3875 1250 
L 2825 1250 
L 2825 700 
L 2325 700 
Q 2350 1300 2350 1825 
L 2350 3075 
Q 2350 3600 2325 4200 
L 3875 4200 
z
M 2250 4925 
Q 2025 4700 1887 4412 
Q 1750 4125 1650 3850 
L 1650 600 
Q 1650 -175 1675 -525 
L 1175 -525 
Q 1200 -125 1200 575 
L 1200 3050 
Q 800 2400 625 2100 
Q 425 2375 200 2450 
Q 550 2825 987 3650 
Q 1425 4475 1600 5150 
L 2250 4925 
z
M 5400 2900 
L 5400 3800 
L 4325 3800 
L 4325 2900 
L 5400 2900 
z
M 3875 2900 
L 3875 3800 
L 2825 3800 
L 2825 2900 
L 3875 2900 
z
M 5400 1650 
L 5400 2500 
L 4325 2500 
L 4325 1650 
L 5400 1650 
z
M 3875 1650 
L 3875 2500 
L 2825 2500 
L 2825 1650 
L 3875 1650 
z
" id="SimHei%2BMSMincho%2BWFMSansClassic-Regular-4f38" transform="scale(0.015625)"/>
      <path d="M 5525 4425 
Q 5175 4400 3550 4250 
L 3550 3250 
L 4675 3250 
Q 5100 3250 5525 3275 
L 5525 2800 
Q 5100 2800 4675 2825 
L 3550 2825 
L 3550 1900 
L 5325 1900 
Q 5700 1900 6100 1925 
L 6100 1450 
Q 5700 1475 5325 1475 
L 3550 1475 
L 3550 125 
Q 3575 -250 3312 -400 
Q 3050 -550 2425 -600 
Q 2400 -300 2175 -25 
Q 2650 -25 2850 37 
Q 3050 100 3025 350 
L 3025 1475 
L 1225 1475 
Q 775 1450 375 1450 
L 375 1925 
Q 800 1900 1225 1900 
L 3025 1900 
L 3025 2825 
L 1925 2825 
Q 1475 2825 1000 2800 
L 1000 3275 
Q 1450 3250 1925 3250 
L 3025 3250 
L 3025 4200 
Q 1725 4125 1050 4100 
Q 975 4375 825 4575 
Q 1725 4550 3162 4662 
Q 4600 4775 5200 5000 
Q 5350 4650 5525 4425 
z
" id="SimHei%2BMSMincho%2BWFMSansClassic-Regular-624b" transform="scale(0.015625)"/>
      <path d="M 4925 2875 
Q 4900 2550 4900 2125 
Q 4900 1700 4925 1350 
L 3975 1350 
L 3975 275 
Q 3950 -25 4325 -25 
L 5075 -25 
Q 5300 -25 5350 112 
Q 5400 250 5450 725 
Q 5750 500 6050 475 
Q 5925 -100 5775 -287 
Q 5625 -475 5225 -475 
L 4075 -475 
Q 3500 -475 3500 25 
L 3500 1350 
L 2725 1350 
Q 2675 400 2125 12 
Q 1575 -375 725 -625 
Q 600 -325 400 -100 
Q 1400 75 1800 362 
Q 2200 650 2225 1350 
L 1475 1350 
Q 1500 1725 1500 2150 
Q 1500 2600 1475 2875 
L 4925 2875 
z
M 2900 3825 
Q 2900 4725 2875 5150 
L 3450 5150 
Q 3425 4725 3425 3825 
L 4150 3825 
Q 4575 4700 4650 5000 
Q 4900 4850 5250 4750 
Q 5050 4475 4650 3825 
L 5900 3825 
Q 5875 3625 5875 3225 
Q 5875 2850 5900 2725 
L 5375 2725 
L 5375 3450 
L 1050 3450 
L 1050 2650 
L 500 2650 
Q 550 2825 550 3225 
Q 550 3650 525 3825 
L 2900 3825 
z
M 4400 1725 
L 4400 2500 
L 2000 2500 
L 2000 1725 
L 4400 1725 
z
M 1550 4975 
Q 1725 4800 2225 4200 
Q 2000 4075 1800 3875 
Q 1325 4500 1100 4650 
Q 1350 4800 1550 4975 
z
" id="SimHei%2BMSMincho%2BWFMSansClassic-Regular-515a" transform="scale(0.015625)"/>
     </defs>
     <use xlink:href="#SimHei%2BMSMincho%2BWFMSansClassic-Regular-4f38"/>
     <use x="100" xlink:href="#SimHei%2BMSMincho%2BWFMSansClassic-Regular-624b"/>
     <use x="200" xlink:href="#SimHei%2BMSMincho%2BWFMSansClassic-Regular-515a"/>
    </g>
   </g>
   <g id="text_34">
    <!-- 教えてチャン -->
    <g transform="translate(213.424881 595.192945)scale(0.35 -0.35)">
     <defs>
      <path d="M 1675 4475 
Q 1675 4900 1650 5200 
L 2150 5200 
Q 2125 4900 2125 4475 
Q 2400 4475 2775 4500 
L 2775 4050 
Q 2450 4075 2125 4075 
L 2125 3400 
L 2325 3400 
Q 2550 3650 2775 4025 
Q 3000 4400 3125 4800 
Q 3350 4650 3575 4525 
Q 3500 4450 3312 4125 
Q 3125 3800 2825 3400 
Q 3225 3400 3425 3425 
L 3425 2975 
Q 3050 3000 2525 3000 
Q 2200 2700 1900 2425 
L 3100 2425 
L 3100 2050 
Q 2925 1975 2712 1837 
Q 2500 1700 2300 1525 
L 2300 1225 
Q 2875 1300 3400 1400 
L 3400 1000 
Q 3300 1000 2300 825 
L 2300 50 
Q 2325 -475 1350 -550 
Q 1325 -275 1175 -25 
Q 1850 -75 1850 225 
L 1850 750 
Q 925 600 500 450 
L 300 950 
Q 650 975 1850 1150 
Q 1850 1425 1800 1650 
Q 2075 1825 2325 2025 
L 1375 2025 
Q 975 1725 550 1475 
Q 400 1675 200 1850 
Q 600 2025 1025 2275 
L 1025 2425 
L 1250 2425 
Q 1700 2775 1925 3000 
Q 775 3000 325 2975 
L 325 3425 
Q 775 3400 1675 3400 
L 1675 4075 
Q 1175 4075 775 4050 
L 775 4500 
Q 1150 4475 1675 4475 
z
M 4675 4975 
Q 4600 4900 4325 3900 
Q 5675 3900 6100 3925 
L 6100 3475 
Q 5750 3500 5525 3500 
Q 5475 3000 5400 2550 
Q 5325 2100 5212 1675 
Q 5100 1250 4875 825 
Q 5375 225 6175 -50 
Q 5900 -300 5825 -500 
Q 5175 -175 4575 475 
Q 3950 -200 3000 -600 
Q 2900 -400 2700 -200 
Q 3700 125 4325 850 
Q 3950 1600 3750 2450 
L 3475 2025 
Q 3350 2200 3150 2375 
Q 3450 2775 3687 3412 
Q 3925 4050 4012 4500 
Q 4100 4950 4125 5175 
Q 4425 5050 4675 4975 
z
M 4025 3025 
Q 4275 1850 4600 1275 
Q 4925 1950 5075 3500 
L 4200 3500 
Q 4100 3225 4025 3025 
z
" id="SimHei%2BMSMincho%2BWFMSansClassic-Regular-6559" transform="scale(0.015625)"/>
      <path d="M 2250 4900 
Q 2925 4725 4300 4750 
L 4300 4275 
Q 3600 4250 2675 4325 
L 2175 4400 
L 2250 4900 
z
M 4200 3875 
L 4650 3300 
Q 4100 2925 3150 2100 
L 3050 1950 
Q 3500 2125 3700 1850 
Q 3825 1675 3825 600 
Q 3750 250 5000 425 
Q 5250 450 5575 550 
L 5575 -50 
Q 5300 -150 3775 -75 
Q 3400 -100 3275 425 
L 3300 1375 
Q 3225 1500 3075 1475 
Q 2300 1475 1225 25 
L 850 400 
Q 2075 1850 3775 3175 
Q 2675 2900 1500 2800 
L 1425 2800 
L 1425 3375 
Q 2725 3375 4200 3875 
z
" id="SimHei%2BMSMincho%2BWFMSansClassic-Regular-3048" transform="scale(0.015625)"/>
      <path d="M 5375 4425 
L 5375 4175 
L 5350 3850 
Q 3900 3900 3025 2850 
Q 2750 2525 2750 1875 
Q 2850 600 4550 450 
L 4500 -100 
Q 3750 -25 3075 325 
Q 2275 800 2250 1975 
Q 2425 3225 3475 3725 
L 3575 3800 
Q 2400 3750 950 3525 
L 900 3500 
L 900 4125 
L 5375 4425 
z
" id="SimHei%2BMSMincho%2BWFMSansClassic-Regular-3066" transform="scale(0.015625)"/>
      <path d="M 2575 3225 
L 2775 2200 
L 4725 2400 
L 4975 2125 
Q 4475 1475 3800 825 
L 3675 700 
L 3375 975 
Q 3825 1350 4375 2000 
L 2850 1800 
L 3275 -350 
L 2900 -400 
L 2450 1725 
L 1525 1600 
L 1475 2000 
L 2375 2125 
L 2150 3175 
L 2575 3225 
z
" id="SimHei%2BMSMincho%2BWFMSansClassic-Regular-30e3" transform="scale(0.015625)"/>
     </defs>
     <use xlink:href="#SimHei%2BMSMincho%2BWFMSansClassic-Regular-6559"/>
     <use x="100" xlink:href="#SimHei%2BMSMincho%2BWFMSansClassic-Regular-3048"/>
     <use x="200" xlink:href="#SimHei%2BMSMincho%2BWFMSansClassic-Regular-3066"/>
     <use x="300" xlink:href="#SimHei%2BMSMincho%2BWFMSansClassic-Regular-30c1"/>
     <use x="400" xlink:href="#SimHei%2BMSMincho%2BWFMSansClassic-Regular-30e3"/>
     <use x="500" xlink:href="#SimHei%2BMSMincho%2BWFMSansClassic-Regular-30f3"/>
    </g>
   </g>
   <g id="text_35">
    <!-- 핑프 -->
    <g transform="translate(279.334105 469.095895)scale(0.35 -0.35)">
     <defs>
      <path d="M 3150 -475 
Q 2250 -475 1725 -200 
Q 1200 75 1200 575 
Q 1200 1075 1725 1362 
Q 2250 1650 3150 1650 
Q 4075 1650 4600 1362 
Q 5125 1075 5125 575 
Q 5125 75 4600 -200 
Q 4075 -475 3150 -475 
z
M 2187 150 
Q 2525 0 3150 0 
Q 3775 0 4112 150 
Q 4450 300 4450 575 
Q 4450 850 4112 987 
Q 3775 1125 3150 1125 
Q 2525 1125 2187 987 
Q 1850 850 1850 575 
Q 1850 300 2187 150 
z
M 4425 1750 
L 4425 5275 
L 5075 5275 
L 5075 1750 
L 4425 1750 
z
M 475 2075 
L 400 2625 
Q 850 2625 1100 2625 
L 1100 4275 
L 575 4275 
L 575 4800 
L 3675 4800 
L 3675 4275 
L 3150 4275 
L 3150 2725 
Q 3550 2750 3925 2800 
L 3975 2325 
Q 2650 2075 475 2075 
z
M 1725 2650 
Q 1725 2650 1750 2650 
Q 2250 2650 2525 2675 
L 2525 4275 
L 1725 4275 
L 1725 2650 
z
" id="SimHei%2BMSMincho%2BWFMSansClassic-Regular-d551" transform="scale(0.015625)"/>
      <path d="M 300 200 
L 300 750 
L 5550 750 
L 5550 200 
L 300 200 
z
M 750 1775 
L 750 2300 
L 1600 2300 
L 1600 4200 
L 750 4200 
L 750 4725 
L 5100 4725 
L 5100 4200 
L 4225 4200 
L 4225 2300 
L 5075 2300 
L 5075 1775 
L 750 1775 
z
M 2250 2300 
L 3575 2300 
L 3575 4200 
L 2250 4200 
L 2250 2300 
z
" id="SimHei%2BMSMincho%2BWFMSansClassic-Regular-d504" transform="scale(0.015625)"/>
     </defs>
     <use xlink:href="#SimHei%2BMSMincho%2BWFMSansClassic-Regular-d551"/>
     <use x="92.1875" xlink:href="#SimHei%2BMSMincho%2BWFMSansClassic-Regular-d504"/>
    </g>
   </g>
   <g id="Path3DCollection_2">
    <defs>
     <path d="M 0 11.18034 
C 2.965061 11.18034 5.80908 10.002309 7.905694 7.905694 
C 10.002309 5.80908 11.18034 2.965061 11.18034 0 
C 11.18034 -2.965061 10.002309 -5.80908 7.905694 -7.905694 
C 5.80908 -10.002309 2.965061 -11.18034 0 -11.18034 
C -2.965061 -11.18034 -5.80908 -10.002309 -7.905694 -7.905694 
C -10.002309 -5.80908 -11.18034 -2.965061 -11.18034 0 
C -11.18034 2.965061 -10.002309 5.80908 -7.905694 7.905694 
C -5.80908 10.002309 -2.965061 11.18034 0 11.18034 
z
" id="m668c18c149" style="stroke:#0d5661;stroke-opacity:0.8;"/>
    </defs>
    <g clip-path="url(#p6872639884)">
     <use style="fill:#0d5661;fill-opacity:0.8;stroke:#0d5661;stroke-opacity:0.8;" x="802.800188" xlink:href="#m668c18c149" y="396.430206"/>
    </g>
   </g>
   <g id="Path3DCollection_3">
    <defs>
     <path d="M 0 11.18034 
C 2.965061 11.18034 5.80908 10.002309 7.905694 7.905694 
C 10.002309 5.80908 11.18034 2.965061 11.18034 0 
C 11.18034 -2.965061 10.002309 -5.80908 7.905694 -7.905694 
C 5.80908 -10.002309 2.965061 -11.18034 0 -11.18034 
C -2.965061 -11.18034 -5.80908 -10.002309 -7.905694 -7.905694 
C -10.002309 -5.80908 -11.18034 -2.965061 -11.18034 0 
C -11.18034 2.965061 -10.002309 5.80908 -7.905694 7.905694 
C -5.80908 10.002309 -2.965061 11.18034 0 11.18034 
z
" id="m1ec70c597e" style="stroke:#cb1b45;stroke-opacity:0.5;"/>
    </defs>
    <g clip-path="url(#p6872639884)">
     <use style="fill:#cb1b45;fill-opacity:0.5;stroke:#cb1b45;stroke-opacity:0.5;" x="279.334105" xlink:href="#m1ec70c597e" y="469.095895"/>
    </g>
   </g>
   <g id="Path3DCollection_4">
    <g clip-path="url(#p6872639884)">
     <use style="fill:#dac9a6;fill-opacity:0.8;stroke:#dac9a6;stroke-opacity:0.8;" x="679.581895" xlink:href="#md33450d79f" y="757.091502"/>
    </g>
   </g>
   <g id="Path3DCollection_5">
    <g clip-path="url(#p6872639884)">
     <use style="fill:#cb1b45;fill-opacity:0.5;stroke:#cb1b45;stroke-opacity:0.5;" x="213.424881" xlink:href="#m1ec70c597e" y="595.192945"/>
    </g>
   </g>
   <g id="Path3DCollection_6">
    <g clip-path="url(#p6872639884)">
     <use style="fill:#dac9a6;fill-opacity:0.8;stroke:#dac9a6;stroke-opacity:0.8;" x="712.879342" xlink:href="#md33450d79f" y="798.342743"/>
    </g>
   </g>
   <g id="Path3DCollection_7">
    <g clip-path="url(#p6872639884)">
     <use style="fill:#0d5661;fill-opacity:0.8;stroke:#0d5661;stroke-opacity:0.8;" x="554.147828" xlink:href="#m668c18c149" y="423.577897"/>
    </g>
   </g>
   <g id="Path3DCollection_8">
    <g clip-path="url(#p6872639884)">
     <use style="fill:#cb1b45;fill-opacity:0.5;stroke:#cb1b45;stroke-opacity:0.5;" x="602.821336" xlink:href="#m1ec70c597e" y="718.258793"/>
    </g>
   </g>
  </g>
 </g>
 <defs>
  <clipPath id="p6872639884">
   <rect height="1087.2" width="1087.2" x="0" y="0"/>
  </clipPath>
 </defs>
</svg>
